<svg xmlns="http://www.w3.org/2000/svg" viewBox="0 0 1560 400"><defs><style>.cls-1,.cls-146,.cls-4{fill:#333}.cls-2{fill:#ffc10e}.cls-3{fill:#f58a1f}.cls-229,.cls-242,.cls-4{font-size:16px}.cls-146,.cls-226,.cls-246,.cls-247,.cls-248,.cls-249,.cls-25,.cls-250,.cls-253,.cls-4,.cls-47,.cls-48,.cls-49,.cls-50,.cls-56,.cls-59,.cls-60,.cls-65{font-family:Rubik-Light,Rubik;font-weight:300}.cls-4,.cls-5{letter-spacing:-.03em}.cls-6{letter-spacing:-.02em}.cls-7{letter-spacing:-.03em}.cls-8{letter-spacing:-.02em}.cls-10,.cls-9{letter-spacing:-.03em}.cls-11,.cls-12{letter-spacing:-.02em}.cls-13{letter-spacing:-.01em}.cls-14,.cls-15{letter-spacing:-.02em}.cls-16,.cls-17,.cls-18,.cls-19{letter-spacing:-.03em}.cls-20{letter-spacing:-.02em}.cls-21{fill:#4579bd}.cls-22{font-size:20px;letter-spacing:-.02em}.cls-124,.cls-22,.cls-87{fill:#fff}.cls-22,.cls-229,.cls-242,.cls-74,.cls-82,.cls-87{font-family:Rubik-Medium,Rubik}.cls-133,.cls-189,.cls-22,.cls-229,.cls-242,.cls-268,.cls-74,.cls-82,.cls-87{font-weight:500}.cls-23,.cls-24,.cls-25{letter-spacing:-.02em}.cls-26{letter-spacing:-.01em}.cls-27,.cls-28,.cls-29,.cls-30{letter-spacing:-.02em}.cls-31,.cls-50{letter-spacing:-.01em}.cls-32{letter-spacing:.01em}.cls-33,.cls-34,.cls-35{letter-spacing:-.02em}.cls-36{letter-spacing:-.03em}.cls-37{letter-spacing:-.02em}.cls-38{letter-spacing:-.01em}.cls-39{letter-spacing:-.02em}.cls-40{letter-spacing:-.03em}.cls-41{letter-spacing:-.01em}.cls-42{letter-spacing:-.02em}.cls-43{letter-spacing:-.01em}.cls-44,.cls-45,.cls-46,.cls-47{letter-spacing:-.02em}.cls-48,.cls-49{letter-spacing:-.01em}.cls-51{letter-spacing:.01em}.cls-52{letter-spacing:-.02em}.cls-53{letter-spacing:-.01em}.cls-54,.cls-55,.cls-56,.cls-65{letter-spacing:-.02em}.cls-57,.cls-58{letter-spacing:-.01em}.cls-59,.cls-60,.cls-61,.cls-62,.cls-63{letter-spacing:-.02em}.cls-64{letter-spacing:-.03em}.cls-66{letter-spacing:-.02em}.cls-67{letter-spacing:-.01em}.cls-68{letter-spacing:-.02em}.cls-69{letter-spacing:-.01em}.cls-70,.cls-71{letter-spacing:-.02em}.cls-72{letter-spacing:-.01em}.cls-73{fill:#666}.cls-253,.cls-283,.cls-74,.cls-82,.cls-87{font-size:18px}.cls-101,.cls-74,.cls-82{fill:#ccc}.cls-74,.cls-91{letter-spacing:-.03em}.cls-75,.cls-76,.cls-77{letter-spacing:-.02em}.cls-78{letter-spacing:-.01em}.cls-258,.cls-79,.cls-80,.cls-81,.cls-82,.cls-83{letter-spacing:-.02em}.cls-84,.cls-85{letter-spacing:-.04em}.cls-86{letter-spacing:-.02em}.cls-289,.cls-87{letter-spacing:-.01em}.cls-88{letter-spacing:-.04em}.cls-89,.cls-90,.cls-92,.cls-93,.cls-94{letter-spacing:-.02em}.cls-95,.cls-96{letter-spacing:-.03em}.cls-100,.cls-97,.cls-98,.cls-99{letter-spacing:-.02em}.cls-102,.cls-111,.cls-119,.cls-125,.cls-184,.cls-216,.cls-234{font-size:19px}.cls-102,.cls-111,.cls-119,.cls-125,.cls-152,.cls-153,.cls-154,.cls-156,.cls-157,.cls-158,.cls-159,.cls-160,.cls-161,.cls-162,.cls-163,.cls-164,.cls-166,.cls-167,.cls-168,.cls-169,.cls-170,.cls-171,.cls-172,.cls-177,.cls-178,.cls-179,.cls-180,.cls-181,.cls-182,.cls-183,.cls-184,.cls-196,.cls-197,.cls-198,.cls-199,.cls-200,.cls-201,.cls-202,.cls-203,.cls-204,.cls-205,.cls-206,.cls-207,.cls-208,.cls-209,.cls-210,.cls-211,.cls-215,.cls-216,.cls-234,.cls-243,.cls-258,.cls-280,.cls-281,.cls-282,.cls-283{font-family:Rubik-Regular,Rubik}.cls-102,.cls-123{letter-spacing:-.02em}.cls-103{letter-spacing:-.03em}.cls-104,.cls-105{letter-spacing:-.04em}.cls-106,.cls-107{letter-spacing:-.02em}.cls-108{letter-spacing:-.01em}.cls-109,.cls-110,.cls-111,.cls-112{letter-spacing:-.02em}.cls-113{letter-spacing:-.03em}.cls-114{letter-spacing:-.01em}.cls-115{letter-spacing:-.02em}.cls-116{letter-spacing:-.03em}.cls-117,.cls-118{letter-spacing:-.04em}.cls-119{letter-spacing:-.01em}.cls-120{letter-spacing:-.04em}.cls-121{letter-spacing:-.02em}.cls-122{letter-spacing:-.03em}.cls-125{letter-spacing:-.02em}.cls-126{letter-spacing:-.01em}.cls-127,.cls-128,.cls-129{letter-spacing:-.03em}.cls-130{letter-spacing:-.01em}.cls-131{letter-spacing:.01em}.cls-132{letter-spacing:-.04em}.cls-133,.cls-189,.cls-243,.cls-268{font-size:15px}.cls-133,.cls-189,.cls-268{font-family:Rubik-MediumItalic,Rubik;font-style:italic}.cls-133,.cls-134{letter-spacing:-.03em}.cls-135{letter-spacing:-.05em}.cls-136{letter-spacing:-.02em}.cls-137{letter-spacing:-.1em}.cls-138{letter-spacing:-.03em}.cls-139{letter-spacing:-.02em}.cls-140{letter-spacing:-.03em}.cls-141{letter-spacing:-.01em}.cls-142,.cls-143{letter-spacing:-.02em}.cls-144{letter-spacing:-.01em}.cls-145,.cls-146{letter-spacing:-.02em}.cls-146{font-size:13px;font-style:normal}.cls-147{letter-spacing:-.01em}.cls-148,.cls-171{letter-spacing:-.03em}.cls-149,.cls-150{letter-spacing:-.02em}.cls-151{letter-spacing:-.03em}.cls-152,.cls-153,.cls-154,.cls-156,.cls-157,.cls-158,.cls-159,.cls-160,.cls-161,.cls-162,.cls-163,.cls-164,.cls-166,.cls-167,.cls-168,.cls-169,.cls-170,.cls-171,.cls-172,.cls-177,.cls-178,.cls-179,.cls-180,.cls-181,.cls-182,.cls-183,.cls-196,.cls-197,.cls-198,.cls-199,.cls-200,.cls-201,.cls-202,.cls-203,.cls-204,.cls-205,.cls-206,.cls-207,.cls-208,.cls-209,.cls-210,.cls-211,.cls-215,.cls-258,.cls-280,.cls-281,.cls-282{font-weight:400}.cls-152,.cls-153,.cls-154,.cls-155,.cls-156,.cls-157,.cls-158,.cls-159,.cls-160,.cls-161,.cls-162,.cls-163,.cls-164,.cls-165,.cls-166,.cls-167,.cls-168,.cls-169,.cls-170,.cls-171,.cls-172,.cls-177,.cls-178,.cls-179,.cls-180,.cls-181,.cls-182,.cls-183,.cls-196,.cls-197,.cls-198,.cls-199,.cls-200,.cls-201,.cls-202,.cls-203,.cls-204,.cls-205,.cls-206,.cls-207,.cls-208,.cls-209,.cls-210,.cls-211,.cls-215,.cls-280,.cls-281,.cls-282{fill:#000}.cls-153,.cls-279{letter-spacing:-.02em}.cls-154{letter-spacing:-.04em}.cls-156{letter-spacing:-.02em}.cls-157{letter-spacing:-.01em}.cls-158{letter-spacing:-.03em}.cls-159{letter-spacing:0}.cls-160{letter-spacing:-.05em}.cls-161,.cls-162{letter-spacing:-.02em}.cls-163{letter-spacing:-.01em}.cls-164{letter-spacing:-.03em}.cls-165,.cls-166,.cls-167,.cls-168,.cls-169,.cls-170,.cls-172{letter-spacing:-.02em}.cls-173,.cls-174,.cls-175,.cls-176{letter-spacing:-.03em}.cls-177{letter-spacing:-.02em}.cls-178,.cls-179{letter-spacing:-.03em}.cls-180{letter-spacing:.02em}.cls-181{letter-spacing:-.04em}.cls-182,.cls-183{letter-spacing:-.02em}.cls-184,.cls-185{letter-spacing:-.03em}.cls-186{letter-spacing:-.02em}.cls-187{letter-spacing:-.01em}.cls-188{letter-spacing:.01em}.cls-189,.cls-190,.cls-191,.cls-192,.cls-250{letter-spacing:-.02em}.cls-193,.cls-194,.cls-195{letter-spacing:-.03em}.cls-196{letter-spacing:-.05em}.cls-197,.cls-198,.cls-199{letter-spacing:-.02em}.cls-200{letter-spacing:-.03em}.cls-201{letter-spacing:-.02em}.cls-202{letter-spacing:-.03em}.cls-203{letter-spacing:-.15em}.cls-204{letter-spacing:-.03em}.cls-205{letter-spacing:-.11em}.cls-206{letter-spacing:-.02em}.cls-207{letter-spacing:-.03em}.cls-208{letter-spacing:-.02em}.cls-209{letter-spacing:-.09em}.cls-210,.cls-211,.cls-214{letter-spacing:-.02em}.cls-212,.cls-213{letter-spacing:-.03em}.cls-215{letter-spacing:-.02em}.cls-216{letter-spacing:0}.cls-217{letter-spacing:-.03em}.cls-218{letter-spacing:-.01em}.cls-219{letter-spacing:-.02em}.cls-220{letter-spacing:0}.cls-221{letter-spacing:-.01em}.cls-222{letter-spacing:-.02em}.cls-223{letter-spacing:0}.cls-224{letter-spacing:-.01em}.cls-225{letter-spacing:0}.cls-226,.cls-227,.cls-228,.cls-229,.cls-230,.cls-231,.cls-232,.cls-233{letter-spacing:-.01em}.cls-234{letter-spacing:-.02em}.cls-235{letter-spacing:0}.cls-236{letter-spacing:-.03em}.cls-237{letter-spacing:-.02em}.cls-238{letter-spacing:-.01em}.cls-239{letter-spacing:0}.cls-240,.cls-241{letter-spacing:-.02em}.cls-242{letter-spacing:0}.cls-243{letter-spacing:-.04em}.cls-244{letter-spacing:.01em}.cls-245,.cls-246{letter-spacing:-.02em}.cls-247,.cls-248{letter-spacing:-.04em}.cls-249,.cls-251,.cls-270{letter-spacing:-.03em}.cls-252{letter-spacing:-.02em}.cls-253,.cls-254,.cls-255,.cls-256{letter-spacing:-.03em}.cls-257{letter-spacing:-.04em}.cls-259,.cls-260{letter-spacing:-.02em}.cls-261{letter-spacing:-.03em}.cls-262,.cls-263{letter-spacing:-.02em}.cls-264{letter-spacing:0}.cls-265{letter-spacing:-.03em}.cls-266{letter-spacing:-.02em}.cls-267{letter-spacing:-.01em}.cls-268{letter-spacing:-.02em}.cls-269{letter-spacing:-.03em}.cls-271{letter-spacing:-.02em}.cls-272{letter-spacing:-.03em}.cls-273,.cls-274{letter-spacing:-.02em}.cls-275{letter-spacing:-.03em}.cls-276,.cls-277,.cls-278{letter-spacing:-.02em}.cls-280{letter-spacing:-.01em}.cls-281{letter-spacing:-.03em}.cls-282{letter-spacing:-.01em}.cls-283{letter-spacing:-.02em}.cls-284{letter-spacing:.02em}.cls-285{letter-spacing:-.02em}.cls-286,.cls-287,.cls-288{letter-spacing:-.03em}</style></defs><g id="Layer_2" data-name="Layer 2"><g id="Layer_1-2" data-name="Layer 1"><rect width="1560" height="400" class="cls-1"/><rect width="1081" height="186" x="269" y="160.63" class="cls-2"/><path d="M1105.07,164.63v207h-164v-207h164m0-2h-164a2,2,0,0,0-2,2v207a2,2,0,0,0,2,2h164a2,2,0,0,0,2-2v-207a2,2,0,0,0-2-2Z" class="cls-3"/><rect width="162" height="20" x="942.07" y="350.43" class="cls-3"/><text class="cls-4" transform="translate(952.97 366.02)">I<tspan x="3.51" y="0" class="cls-5">n</tspan><tspan x="12.47" y="0" class="cls-6">fi</tspan><tspan x="20.01" y="0" class="cls-7">n</tspan><tspan x="28.98" y="0" class="cls-8">i</tspan><tspan x="32.29" y="0" class="cls-9">t</tspan><tspan x="37.52" y="0" class="cls-10">e</tspan><tspan x="45.83" y="0" class="cls-11">l</tspan><tspan x="49.03" y="0" class="cls-12">y </tspan><tspan x="61.03" y="0" class="cls-13">E</tspan><tspan x="70.41" y="0" class="cls-14">x</tspan><tspan x="78.31" y="0" class="cls-15">p</tspan><tspan x="87.32" y="0" class="cls-16">a</tspan><tspan x="95.46" y="0" class="cls-17">nd</tspan><tspan x="113.36" y="0" class="cls-18">a</tspan><tspan x="121.49" y="0" class="cls-19">bl</tspan><tspan x="133.54" y="0" class="cls-20">e</tspan></text><polygon points="1529.56 59.05 1477.06 23.64 1477.06 39.99 29.56 39.99 29.56 78.11 1477.06 78.11 1477.06 94.45 1529.56 59.05" class="cls-21"/><text class="cls-22" transform="translate(435.86 65.43)">S<tspan x="12.48" y="0" class="cls-23">u</tspan><tspan x="24.51" y="0" class="cls-24">b</tspan><tspan x="36.33" y="0" class="cls-25">-</tspan><tspan x="45.59" y="0" class="cls-26">S</tspan><tspan x="58.25" y="0" class="cls-27">e</tspan><tspan x="69.48" y="0" class="cls-28">c</tspan><tspan x="80.57" y="0" class="cls-29">o</tspan><tspan x="92.05" y="0" class="cls-30">n</tspan><tspan x="104.18" y="0" class="cls-31">d </tspan><tspan x="120.42" y="0" class="cls-32">L</tspan><tspan x="132.13" y="0" class="cls-33">a</tspan><tspan x="143.19" y="0" class="cls-34">t</tspan><tspan x="151.35" y="0" class="cls-30">e</tspan><tspan x="162.54" y="0" class="cls-35">n</tspan><tspan x="174.64" y="0" class="cls-36">c</tspan><tspan x="185.54" y="0" class="cls-37">y </tspan><tspan x="201" y="0" class="cls-38">L</tspan><tspan x="212.39" y="0" class="cls-39">i</tspan><tspan x="217.29" y="0" class="cls-40">v</tspan><tspan x="228.08" y="0" class="cls-37">e </tspan><tspan x="243.6" y="0" class="cls-41">S</tspan><tspan x="256.32" y="0" class="cls-42">t</tspan><tspan x="264.56" y="0" class="cls-43">r</tspan><tspan x="272.62" y="0" class="cls-28">e</tspan><tspan x="283.84" y="0" class="cls-44">a</tspan><tspan x="294.89" y="0" class="cls-45">m</tspan><tspan x="312.53" y="0" class="cls-46">in</tspan><tspan x="329.53" y="0" class="cls-31">g </tspan><tspan x="345.83" y="0" class="cls-47">w</tspan><tspan x="361.08" y="0" class="cls-48">i</tspan><tspan x="365.29" y="0" class="cls-49">t</tspan><tspan x="372.17" y="0" class="cls-50">h</tspan><tspan x="383.69" y="0" class="cls-31"> </tspan><tspan x="387.97" y="0" class="cls-51">L</tspan><tspan x="399.68" y="0" class="cls-52">a</tspan><tspan x="410.73" y="0" class="cls-53">r</tspan><tspan x="418.83" y="0" class="cls-54">g</tspan><tspan x="430.76" y="0" class="cls-55">e</tspan><tspan x="441.88" y="0" class="cls-56">-</tspan><tspan x="451.13" y="0" class="cls-57">S</tspan><tspan x="463.78" y="0" class="cls-58">c</tspan><tspan x="475.05" y="0" class="cls-35">al</tspan><tspan x="491.01" y="0" class="cls-31">e </tspan><tspan x="506.53" y="0" class="cls-59">a</tspan><tspan x="516.77" y="0" class="cls-60">n</tspan><tspan x="528.12" y="0" class="cls-50">d </tspan><tspan x="544.28" y="0" class="cls-61">H</tspan><tspan x="558.43" y="0" class="cls-62">i</tspan><tspan x="563.31" y="0" class="cls-63">g</tspan><tspan x="575.23" y="0" class="cls-64">h</tspan><tspan x="587.27" y="0" class="cls-65">-</tspan><tspan x="596.62" y="0" class="cls-66">D</tspan><tspan x="610.31" y="0" class="cls-67">e</tspan><tspan x="621.59" y="0" class="cls-31">fi</tspan><tspan x="633.55" y="0" class="cls-68">n</tspan><tspan x="645.63" y="0" class="cls-69">i</tspan><tspan x="650.63" y="0" class="cls-70">t</tspan><tspan x="658.86" y="0" class="cls-62">i</tspan><tspan x="663.75" y="0" class="cls-71">o</tspan><tspan x="675.23" y="0" class="cls-72">n</tspan></text><rect width="434" height="32" x="30.02" y="115.3" class="cls-73" rx="16"/><text class="cls-74" transform="translate(190.93 137.27)">M<tspan x="14.14" y="0" class="cls-75">e</tspan><tspan x="24.17" y="0" class="cls-76">d</tspan><tspan x="34.77" y="0" class="cls-77">i</tspan><tspan x="39.08" y="0" class="cls-75">a </tspan><tspan x="52.76" y="0" class="cls-78">S</tspan><tspan x="64.06" y="0" class="cls-77">o</tspan><tspan x="74.28" y="0" class="cls-79">u</tspan><tspan x="85.03" y="0" class="cls-80">r</tspan><tspan x="92.25" y="0" class="cls-81">c</tspan><tspan x="102.16" y="0" class="cls-75">e</tspan></text><rect width="161" height="32" x="1368.1" y="115.3" class="cls-73" rx="16"/><text class="cls-82" transform="translate(1422.49 137.27)">P<tspan x="11.46" y="0" class="cls-83">l</tspan><tspan x="15.83" y="0" class="cls-84">a</tspan><tspan x="25.38" y="0" class="cls-85">y</tspan><tspan x="35.03" y="0" class="cls-86">e</tspan><tspan x="45.03" y="0" class="cls-20">r</tspan></text><rect width="801" height="32" x="515.7" y="115.3" class="cls-3" rx="16"/><text class="cls-87" transform="translate(841.76 136.97)">O<tspan x="12.25" y="0" class="cls-88">v</tspan><tspan x="21.88" y="0" class="cls-89">e</tspan><tspan x="31.88" y="0" class="cls-90">n</tspan><tspan x="42.66" y="0" class="cls-91">M</tspan><tspan x="56.8" y="0" class="cls-92">e</tspan><tspan x="66.83" y="0" class="cls-93">d</tspan><tspan x="77.43" y="0" class="cls-94">i</tspan><tspan x="81.74" y="0" class="cls-95">a</tspan><tspan x="91.56" y="0" class="cls-96">E</tspan><tspan x="102.25" y="0" class="cls-97">n</tspan><tspan x="113.07" y="0" class="cls-98">g</tspan><tspan x="123.73" y="0" class="cls-99">i</tspan><tspan x="128.06" y="0" class="cls-100">n</tspan><tspan x="138.86" y="0" class="cls-92">e</tspan></text><rect width="159.75" height="49.75" x="1368.73" y="290.08" class="cls-101"/><path d="M1528.35,290.2v49.5h-159.5V290.2h159.5m.25-.25h-160v50h160V290Z"/><text class="cls-102" transform="translate(1402.8 320.45)">P<tspan x="11.78" y="0" class="cls-103">l</tspan><tspan x="15.92" y="0" class="cls-104">a</tspan><tspan x="25.67" y="0" class="cls-105">y</tspan><tspan x="35.45" y="0" class="cls-106">e</tspan><tspan x="45.62" y="0" class="cls-107">r </tspan><tspan x="56.74" y="0" class="cls-108">A</tspan><tspan x="69.2" y="0" class="cls-109">p</tspan><tspan x="80.06" y="0" class="cls-110">p</tspan></text><rect width="159.75" height="49.75" x="1368.73" y="228.85" class="cls-101"/><path d="M1528.35,229v49.5h-159.5V229h159.5m.25-.25h-160v50h160v-50Z"/><text class="cls-111" transform="translate(1390.07 259.23)">H<tspan x="13.21" y="0" class="cls-112">T</tspan><tspan x="23.85" y="0" class="cls-113">M</tspan><tspan x="38.33" y="0" class="cls-114">L</tspan><tspan x="48.82" y="0" class="cls-107">5 </tspan><tspan x="64" y="0" class="cls-115">P</tspan><tspan x="75.79" y="0" class="cls-116">l</tspan><tspan x="79.93" y="0" class="cls-117">a</tspan><tspan x="89.67" y="0" class="cls-118">y</tspan><tspan x="99.45" y="0" class="cls-106">e</tspan><tspan x="109.63" y="0" class="cls-107">r</tspan></text><rect width="159.75" height="49.75" x="1368.73" y="167.63" class="cls-101"/><path d="M1528.35,167.75v49.5h-159.5v-49.5h159.5m.25-.25h-160v50h160v-50Z"/><text class="cls-119" transform="translate(1400.31 198)">O<tspan x="12.58" y="0" class="cls-120">v</tspan><tspan x="22.38" y="0" class="cls-121">e</tspan><tspan x="32.55" y="0" class="cls-122">n</tspan><tspan x="43.52" y="0" class="cls-123">P</tspan><tspan x="55.3" y="0" class="cls-103">l</tspan><tspan x="59.44" y="0" class="cls-104">a</tspan><tspan x="69.19" y="0" class="cls-105">y</tspan><tspan x="78.97" y="0" class="cls-106">e</tspan><tspan x="89.14" y="0" class="cls-107">r</tspan></text><rect width="159.75" height="49.75" x="517.33" y="167.42" class="cls-124"/><path d="M677,167.55v49.5H517.45v-49.5H677m.25-.25h-160v50h160v-50Z"/><text class="cls-125" transform="translate(542.03 197.8)">O<tspan x="12.47" y="0" class="cls-126">r</tspan><tspan x="19.44" y="0" class="cls-127">i</tspan><tspan x="23.52" y="0" class="cls-128">g</tspan><tspan x="34.33" y="0" class="cls-129">i</tspan><tspan x="38.42" y="0" class="cls-107">n </tspan><tspan x="53.82" y="0" class="cls-130">S</tspan><tspan x="65.38" y="0" class="cls-121">e</tspan><tspan x="75.55" y="0" class="cls-131">r</tspan><tspan x="82.93" y="0" class="cls-132">v</tspan><tspan x="92.73" y="0" class="cls-121">e</tspan><tspan x="102.9" y="0" class="cls-107">r</tspan></text><text class="cls-133" transform="translate(539.59 296.53) scale(0.98 1)">L<tspan x="8.22" y="0" class="cls-134">i</tspan><tspan x="11.69" y="0" class="cls-135">v</tspan><tspan x="19.51" y="0" class="cls-136">e </tspan><tspan x="31.03" y="0" class="cls-137">T</tspan><tspan x="38.6" y="0" class="cls-138">r</tspan><tspan x="44.51" y="0" class="cls-139">a</tspan><tspan x="53.37" y="0" class="cls-140">n</tspan><tspan x="62.29" y="0" class="cls-141">s</tspan><tspan x="70.07" y="0" class="cls-142">co</tspan><tspan x="86.93" y="0" class="cls-143">d</tspan><tspan x="95.87" y="0" class="cls-144">i</tspan><tspan x="99.61" y="0" class="cls-145">n</tspan><tspan x="108.69" y="0" class="cls-136">g</tspan><tspan class="cls-146"><tspan x="-40.08" y="20">- </tspan><tspan x="-30.92" y="20" class="cls-147">V</tspan><tspan x="-22.8" y="20" class="cls-148">i</tspan><tspan x="-20.24" y="20" class="cls-149">d</tspan><tspan x="-13.01" y="20" class="cls-150">e</tspan><tspan x="-6.14" y="20" class="cls-151">o</tspan><tspan x=".76" y="20">: </tspan><tspan x="6.73" y="20" class="cls-152">V</tspan><tspan x="14.98" y="20" class="cls-153">P</tspan><tspan x="23.08" y="20" class="cls-154">8</tspan><tspan x="30.81" y="20" class="cls-155">, </tspan><tspan x="36.72" y="20" class="cls-156">H</tspan><tspan x="45.74" y="20" class="cls-157">.</tspan><tspan x="48.9" y="20" class="cls-158">2</tspan><tspan x="56.14" y="20" class="cls-159">6</tspan><tspan x="64.04" y="20" class="cls-160">4</tspan><tspan x="71.41" y="20" class="cls-155">,</tspan><tspan x="74.23" y="20" class="cls-152"> </tspan><tspan x="77.15" y="20" class="cls-161">P</tspan><tspan x="85.22" y="20" class="cls-162">a</tspan><tspan x="92.07" y="20" class="cls-163">s</tspan><tspan x="98.55" y="20" class="cls-164">s</tspan><tspan x="104.75" y="20" class="cls-165">-</tspan><tspan x="110.81" y="20" class="cls-166">t</tspan><tspan x="115.67" y="20" class="cls-167">h</tspan><tspan x="123.27" y="20" class="cls-168">r</tspan><tspan x="127.97" y="20" class="cls-169">o</tspan><tspan x="135.12" y="20" class="cls-170">u</tspan><tspan x="142.64" y="20" class="cls-171">g</tspan><tspan x="150.06" y="20" class="cls-172">h</tspan><tspan x="-38.43" y="35">- </tspan><tspan x="-29.26" y="35" class="cls-173">A</tspan><tspan x="-21.21" y="35" class="cls-149">u</tspan><tspan x="-13.91" y="35" class="cls-174">d</tspan><tspan x="-6.72" y="35" class="cls-175">i</tspan><tspan x="-4.15" y="35" class="cls-176">o</tspan><tspan x="2.75" y="35">: </tspan><tspan x="8.71" y="35" class="cls-177">O</tspan><tspan x="17.27" y="35" class="cls-170">p</tspan><tspan x="24.71" y="35" class="cls-178">u</tspan><tspan x="32.2" y="35" class="cls-179">s</tspan><tspan x="38.45" y="35" class="cls-155">, </tspan><tspan x="44.37" y="35" class="cls-180">A</tspan><tspan x="53.34" y="35" class="cls-158">A</tspan><tspan x="61.65" y="35" class="cls-181">C</tspan><tspan x="69.75" y="35" class="cls-155">,</tspan><tspan x="72.57" y="35" class="cls-152"> </tspan><tspan x="75.49" y="35" class="cls-161">P</tspan><tspan x="83.56" y="35" class="cls-162">a</tspan><tspan x="90.41" y="35" class="cls-163">s</tspan><tspan x="96.9" y="35" class="cls-164">s</tspan><tspan x="103.09" y="35" class="cls-165">-</tspan><tspan x="109.16" y="35" class="cls-166">t</tspan><tspan x="114.01" y="35" class="cls-167">h</tspan><tspan x="121.61" y="35" class="cls-168">r</tspan><tspan x="126.31" y="35" class="cls-182">o</tspan><tspan x="133.47" y="35" class="cls-183">u</tspan><tspan x="140.99" y="35" class="cls-171">g</tspan><tspan x="148.41" y="35" class="cls-152">h</tspan></tspan></text><rect width="159.75" height="49.75" x="517.33" y="228.65" class="cls-124"/><path d="M677,228.78v49.5H517.45v-49.5H677m.25-.25h-160v50h160v-50Z"/><text class="cls-125" transform="translate(542.03 259.03)">O<tspan x="12.47" y="0" class="cls-126">r</tspan><tspan x="19.44" y="0" class="cls-127">i</tspan><tspan x="23.52" y="0" class="cls-128">g</tspan><tspan x="34.33" y="0" class="cls-129">i</tspan><tspan x="38.42" y="0" class="cls-107">n </tspan><tspan x="53.82" y="0" class="cls-130">S</tspan><tspan x="65.38" y="0" class="cls-121">e</tspan><tspan x="75.55" y="0" class="cls-131">r</tspan><tspan x="82.93" y="0" class="cls-132">v</tspan><tspan x="92.73" y="0" class="cls-121">e</tspan><tspan x="102.9" y="0" class="cls-107">r</tspan></text><rect width="159.75" height="49.75" x="943.33" y="290.08" class="cls-124"/><path d="M1103,290.2v49.5H943.45V290.2H1103m.25-.25h-160v50h160V290Z"/><text class="cls-184" transform="translate(971.62 320.45)">E<tspan x="10.86" y="0" class="cls-185">dg</tspan><tspan x="32.55" y="0" class="cls-186">e </tspan><tspan x="47.08" y="0" class="cls-187">S</tspan><tspan x="58.64" y="0" class="cls-106">e</tspan><tspan x="68.81" y="0" class="cls-188">r</tspan><tspan x="76.19" y="0" class="cls-120">v</tspan><tspan x="85.98" y="0" class="cls-121">e</tspan><tspan x="96.16" y="0" class="cls-107">r</tspan></text><rect width="159.75" height="49.75" x="943.33" y="228.85" class="cls-124"/><path d="M1103,229v49.5H943.45V229H1103m.25-.25h-160v50h160v-50Z"/><text class="cls-184" transform="translate(971.4 259.23)">E<tspan x="10.86" y="0" class="cls-185">dg</tspan><tspan x="32.55" y="0" class="cls-186">e </tspan><tspan x="47.08" y="0" class="cls-187">S</tspan><tspan x="58.64" y="0" class="cls-106">e</tspan><tspan x="68.81" y="0" class="cls-188">r</tspan><tspan x="76.19" y="0" class="cls-120">v</tspan><tspan x="85.98" y="0" class="cls-121">e</tspan><tspan x="96.16" y="0" class="cls-107">r</tspan></text><rect width="159.75" height="49.75" x="943.33" y="167.63" class="cls-124"/><path d="M1103,167.75v49.5H943.45v-49.5H1103m.25-.25h-160v50h160v-50Z"/><text class="cls-184" transform="translate(971.4 198)">E<tspan x="10.86" y="0" class="cls-185">dg</tspan><tspan x="32.55" y="0" class="cls-186">e </tspan><tspan x="47.08" y="0" class="cls-187">S</tspan><tspan x="58.64" y="0" class="cls-106">e</tspan><tspan x="68.81" y="0" class="cls-188">r</tspan><tspan x="76.19" y="0" class="cls-120">v</tspan><tspan x="85.98" y="0" class="cls-121">e</tspan><tspan x="96.16" y="0" class="cls-107">r</tspan></text><text class="cls-189" transform="translate(366.03 210.13) scale(0.98 1)">I<tspan x="4.21" y="0" class="cls-190">n</tspan><tspan x="13.28" y="0" class="cls-191">p</tspan><tspan x="22.16" y="0" class="cls-138">u</tspan><tspan x="31.1" y="0" class="cls-191">t</tspan><tspan class="cls-146"><tspan x="-91.21" y="20">- </tspan><tspan x="-82.04" y="20" class="cls-192">P</tspan><tspan x="-74.09" y="20" class="cls-193">u</tspan><tspan x="-66.85" y="20" class="cls-194">l</tspan><tspan x="-64.3" y="20" class="cls-195">l</tspan><tspan x="-61.78" y="20">: </tspan><tspan x="-55.81" y="20" class="cls-196">W</tspan><tspan x="-46" y="20" class="cls-197">e</tspan><tspan x="-39.02" y="20" class="cls-198">b</tspan><tspan x="-31.6" y="20" class="cls-199">R</tspan><tspan x="-23.3" y="20" class="cls-200">T</tspan><tspan x="-16.14" y="20" class="cls-181">C</tspan><tspan x="-8.03" y="20" class="cls-155">, </tspan><tspan x="-2.12" y="20" class="cls-199">R</tspan><tspan x="6.19" y="20" class="cls-201">T</tspan><tspan x="13.49" y="20" class="cls-202">M</tspan><tspan x="23.44" y="20" class="cls-203">P</tspan><tspan x="29.81" y="20" class="cls-155">, </tspan><tspan x="35.72" y="20" class="cls-204">S</tspan><tspan x="43.47" y="20" class="cls-199">R</tspan><tspan x="51.77" y="20" class="cls-205">T</tspan><tspan x="57.82" y="20" class="cls-155">, </tspan><tspan x="63.74" y="20" class="cls-202">M</tspan><tspan x="73.68" y="20" class="cls-206">P</tspan><tspan x="81.75" y="20" class="cls-207">E</tspan><tspan x="89.22" y="20" class="cls-208">G</tspan><tspan x="97.77" y="20" class="cls-209">-</tspan><tspan x="102.94" y="20" class="cls-210">2 </tspan><tspan x="113.23" y="20" class="cls-211">T</tspan><tspan x="120.56" y="20" class="cls-152">S</tspan><tspan x="-18.96" y="35">- </tspan><tspan x="-9.8" y="35" class="cls-192">P</tspan><tspan x="-1.85" y="35" class="cls-212">us</tspan><tspan x="11.45" y="35" class="cls-213">h</tspan><tspan x="18.71" y="35" class="cls-214">: </tspan><tspan x="24.68" y="35" class="cls-215">R</tspan><tspan x="32.99" y="35" class="cls-211">T</tspan><tspan x="40.31" y="35" class="cls-204">S</tspan><tspan x="48.06" y="35" class="cls-152">P</tspan></tspan></text><path d="M507.66,202.23a.79.79,0,0,1-.37-.1.74.74,0,0,1-.38-.65v-5.23H241.24a.74.74,0,0,1-.75-.75v-6a.75.75,0,0,1,.75-.75H506.91v-5.22a.73.73,0,0,1,.38-.65.69.69,0,0,1,.37-.1.75.75,0,0,1,.38.1l15.54,9a.77.77,0,0,1,.37.65.74.74,0,0,1-.37.65l-15.54,9A.86.86,0,0,1,507.66,202.23Z"/><path d="M507.66,183.53l15.54,9-15.54,9v-6H241.24v-6H507.66v-6m0-1.5a1.53,1.53,0,0,0-.75.2,1.51,1.51,0,0,0-.75,1.3V188H241.24a1.5,1.5,0,0,0-1.5,1.5v6a1.5,1.5,0,0,0,1.5,1.5H506.16v4.48a1.5,1.5,0,0,0,2.25,1.3l15.54-9a1.49,1.49,0,0,0,0-2.59l-15.54-9a1.53,1.53,0,0,0-.75-.2Z" class="cls-2"/><path d="M507.66,263.25a.69.69,0,0,1-.37-.1.73.73,0,0,1-.38-.65v-5.22H241.24a.75.75,0,0,1-.75-.75v-6a.74.74,0,0,1,.75-.75H506.91v-5.23a.74.74,0,0,1,.38-.65.69.69,0,0,1,.37-.1.75.75,0,0,1,.38.1l15.54,9a.74.74,0,0,1,.37.65.77.77,0,0,1-.37.65l-15.54,9A.75.75,0,0,1,507.66,263.25Z"/><path d="M507.66,244.55l15.54,9-15.54,9v-6H241.24v-6H507.66v-6m0-1.5a1.53,1.53,0,0,0-.75.2,1.51,1.51,0,0,0-.75,1.3V249H241.24a1.5,1.5,0,0,0-1.5,1.5v6a1.5,1.5,0,0,0,1.5,1.5H506.16v4.47a1.51,1.51,0,0,0,.75,1.3,1.51,1.51,0,0,0,1.5,0l15.54-9a1.5,1.5,0,0,0,.75-1.3,1.48,1.48,0,0,0-.75-1.3l-15.54-9a1.53,1.53,0,0,0-.75-.2Z" class="cls-2"/><path d="M1112.75,324.68a.75.75,0,0,1-.38-.1l-15.54-9a.74.74,0,0,1,0-1.29l15.54-9a.75.75,0,0,1,.38-.1.71.71,0,0,1,.37.1.75.75,0,0,1,.38.65v5.22h17.83V257.48H1113.5v5.23a.76.76,0,0,1-.38.65.82.82,0,0,1-.37.1.86.86,0,0,1-.38-.1l-15.54-9a.75.75,0,0,1-.38-.65.78.78,0,0,1,.38-.65l15.54-9a.75.75,0,0,1,.38-.1.71.71,0,0,1,.37.1.75.75,0,0,1,.38.65V250h17.83V196.05H1113.5v5.22a.75.75,0,0,1-.38.65.71.71,0,0,1-.37.1.75.75,0,0,1-.38-.1l-15.54-9a.76.76,0,0,1-.38-.65.75.75,0,0,1,.38-.65l15.54-9a.75.75,0,0,1,.38-.1.71.71,0,0,1,.37.1.75.75,0,0,1,.38.65v5.22h21.58a3.75,3.75,0,0,1,3.75,3.75V250H1333V192.3a3.75,3.75,0,0,1,3.75-3.75h21.54v-5.22a.73.73,0,0,1,.38-.65.69.69,0,0,1,.37-.1.75.75,0,0,1,.38.1l15.54,9a.76.76,0,0,1,.37.65.74.74,0,0,1-.37.65l-15.54,9a.75.75,0,0,1-.38.1.69.69,0,0,1-.37-.1.73.73,0,0,1-.38-.65v-5.22h-17.79V250h17.79v-5.22a.73.73,0,0,1,.38-.65.69.69,0,0,1,.37-.1.75.75,0,0,1,.38.1l15.54,9a.77.77,0,0,1,.37.65.74.74,0,0,1-.37.65l-15.54,9a.86.86,0,0,1-.38.1.79.79,0,0,1-.37-.1.74.74,0,0,1-.38-.65v-5.23h-17.79V311.2h17.79V306a.73.73,0,0,1,.38-.65.69.69,0,0,1,.37-.1.75.75,0,0,1,.38.1l15.54,9a.77.77,0,0,1,.37.65.74.74,0,0,1-.37.65l-15.54,9a.75.75,0,0,1-.38.1.69.69,0,0,1-.37-.1.74.74,0,0,1-.38-.65V318.7h-21.54A3.75,3.75,0,0,1,1333,315V257.48H1138.83V315a3.75,3.75,0,0,1-3.75,3.75H1113.5v5.23a.76.76,0,0,1-.38.65A.71.71,0,0,1,1112.75,324.68Z"/><path d="M1359.06,183.33l15.54,9-15.54,9v-6h-19.29v55.43h19.29v-6l15.54,9-15.54,9v-6h-19.29V312h19.29v-6l15.54,9-15.54,9v-6h-22.29a3,3,0,0,1-3-3V256.73H1138.08V315a3,3,0,0,1-3,3h-22.33v6l-15.55-9,15.55-9v6h19.33V256.73h-19.33v6l-15.55-9,15.55-9v6h19.33V195.3h-19.33v6l-15.55-9,15.55-9v6h22.33a3,3,0,0,1,3,3v58.43h195.69V192.3a3,3,0,0,1,3-3h22.29v-6m-246.31-1.5a1.43,1.43,0,0,0-.75.2l-15.55,9a1.5,1.5,0,0,0,0,2.6l15.55,9a1.43,1.43,0,0,0,.75.2,1.46,1.46,0,0,0,.75-.2,1.5,1.5,0,0,0,.75-1.3V196.8h16.33v52.43h-16.33v-4.47a1.51,1.51,0,0,0-.75-1.3,1.46,1.46,0,0,0-.75-.2,1.43,1.43,0,0,0-.75.2l-15.55,9a1.5,1.5,0,0,0,0,2.6l15.55,9a1.53,1.53,0,0,0,.75.2,1.56,1.56,0,0,0,.75-.2,1.52,1.52,0,0,0,.75-1.3v-4.48h16.33v52.22h-16.33V306a1.51,1.51,0,0,0-.75-1.3,1.56,1.56,0,0,0-.75-.2,1.53,1.53,0,0,0-.75.2l-15.55,9a1.49,1.49,0,0,0,0,2.59l15.55,9a1.53,1.53,0,0,0,.75.2,1.56,1.56,0,0,0,.75-.2,1.52,1.52,0,0,0,.75-1.3v-4.48h20.83a4.5,4.5,0,0,0,4.5-4.5V258.23h192.69V315a4.5,4.5,0,0,0,4.5,4.5h20.79v4.48a1.5,1.5,0,0,0,2.25,1.3l15.54-9a1.5,1.5,0,0,0,0-2.6l-15.54-9a1.51,1.51,0,0,0-1.5,0,1.51,1.51,0,0,0-.75,1.3v4.47h-16.29V258.23h16.29v4.48a1.5,1.5,0,0,0,2.25,1.3l15.54-9a1.5,1.5,0,0,0,0-2.6l-15.54-9a1.51,1.51,0,0,0-1.5,0,1.51,1.51,0,0,0-.75,1.3v4.47h-16.29V196.8h16.29v4.47a1.5,1.5,0,0,0,.75,1.3,1.51,1.51,0,0,0,1.5,0l15.54-9a1.5,1.5,0,0,0,0-2.6l-15.54-9a1.51,1.51,0,0,0-1.5,0,1.5,1.5,0,0,0-.75,1.3v4.47h-20.79a4.51,4.51,0,0,0-4.5,4.5v56.93H1139.58V192.3a4.51,4.51,0,0,0-4.5-4.5h-20.83v-4.47a1.5,1.5,0,0,0-.75-1.3,1.46,1.46,0,0,0-.75-.2Z" class="cls-2"/><path d="M933.66,324.68a.69.69,0,0,1-.37-.1.74.74,0,0,1-.38-.65V318.7H911.05A3.75,3.75,0,0,1,907.3,315V257.48H687.5v5.23a.76.76,0,0,1-.38.65.82.82,0,0,1-.37.1.86.86,0,0,1-.38-.1l-15.54-9a.75.75,0,0,1-.38-.65.78.78,0,0,1,.38-.65l15.54-9a.75.75,0,0,1,.38-.1.71.71,0,0,1,.37.1.75.75,0,0,1,.38.65V250h18.11V196.05H687.5v5.22a.75.75,0,0,1-.38.65.71.71,0,0,1-.37.1.75.75,0,0,1-.38-.1l-15.54-9a.76.76,0,0,1-.38-.65.75.75,0,0,1,.38-.65l15.54-9a.75.75,0,0,1,.38-.1.71.71,0,0,1,.37.1.75.75,0,0,1,.38.65v5.22h21.86a3.75,3.75,0,0,1,3.75,3.75V250H907.3V192.3a3.75,3.75,0,0,1,3.75-3.75h21.86v-5.22a.73.73,0,0,1,.38-.65.69.69,0,0,1,.37-.1.75.75,0,0,1,.38.1l15.54,9a.76.76,0,0,1,.37.65.74.74,0,0,1-.37.65l-15.54,9a.75.75,0,0,1-.38.1.69.69,0,0,1-.37-.1.73.73,0,0,1-.38-.65v-5.22H914.8V250h18.11v-5.22a.73.73,0,0,1,.38-.65.69.69,0,0,1,.37-.1.75.75,0,0,1,.38.1l15.54,9a.77.77,0,0,1,.37.65.74.74,0,0,1-.37.65l-15.54,9a.86.86,0,0,1-.38.1.79.79,0,0,1-.37-.1.74.74,0,0,1-.38-.65v-5.23H914.8V311.2h18.11V306a.73.73,0,0,1,.38-.65.69.69,0,0,1,.37-.1.75.75,0,0,1,.38.1l15.54,9a.77.77,0,0,1,.37.65.74.74,0,0,1-.37.65l-15.54,9A.75.75,0,0,1,933.66,324.68Z"/><path d="M933.66,183.33l15.54,9-15.54,9v-6H914.05v55.43h19.61v-6l15.54,9-15.54,9v-6H914.05V312h19.61v-6l15.54,9-15.54,9v-6H911.05a3,3,0,0,1-3-3V256.73H686.75v6l-15.55-9,15.55-9v6h19.61V195.3H686.75v6l-15.55-9,15.55-9v6h22.61a3,3,0,0,1,3,3v58.43H908.05V192.3a3,3,0,0,1,3-3h22.61v-6m-246.91-1.5a1.43,1.43,0,0,0-.75.2l-15.55,9a1.5,1.5,0,0,0,0,2.6l15.55,9a1.43,1.43,0,0,0,.75.2,1.46,1.46,0,0,0,.75-.2,1.5,1.5,0,0,0,.75-1.3V196.8h16.61v52.43H688.25v-4.47a1.51,1.51,0,0,0-.75-1.3,1.46,1.46,0,0,0-.75-.2,1.43,1.43,0,0,0-.75.2l-15.55,9a1.5,1.5,0,0,0,0,2.6L686,264a1.53,1.53,0,0,0,.75.2,1.56,1.56,0,0,0,.75-.2,1.52,1.52,0,0,0,.75-1.3v-4.48h218.3V315a4.5,4.5,0,0,0,4.5,4.5h21.11v4.48a1.5,1.5,0,0,0,2.25,1.3l15.54-9a1.5,1.5,0,0,0,0-2.6l-15.54-9a1.51,1.51,0,0,0-1.5,0,1.51,1.51,0,0,0-.75,1.3v4.47H915.55V258.23h16.61v4.48a1.5,1.5,0,0,0,2.25,1.3L950,255a1.5,1.5,0,0,0,0-2.6l-15.54-9a1.51,1.51,0,0,0-1.5,0,1.51,1.51,0,0,0-.75,1.3v4.47H915.55V196.8h16.61v4.47a1.5,1.5,0,0,0,.75,1.3,1.51,1.51,0,0,0,1.5,0l15.54-9a1.5,1.5,0,0,0,0-2.6l-15.54-9a1.51,1.51,0,0,0-1.5,0,1.5,1.5,0,0,0-.75,1.3v4.47H911.05a4.51,4.51,0,0,0-4.5,4.5v56.93H713.86V192.3a4.51,4.51,0,0,0-4.5-4.5H688.25v-4.47a1.5,1.5,0,0,0-.75-1.3,1.46,1.46,0,0,0-.75-.2Z" class="cls-2"/><rect width="159.75" height="49.75" x="91.36" y="167.42" class="cls-101"/><path d="M251,167.55v49.5H91.49v-49.5H251m.25-.25h-160v50h160v-50Z"/><text class="cls-216" transform="translate(108.63 200.29)">O<tspan x="12.77" y="0" class="cls-217">v</tspan><tspan x="22.76" y="0" class="cls-218">e</tspan><tspan x="33.12" y="0" class="cls-219">n</tspan><tspan x="44.28" y="0" class="cls-220">L</tspan><tspan x="54.9" y="0" class="cls-221">i</tspan><tspan x="59.24" y="0" class="cls-217">v</tspan><tspan x="69.22" y="0" class="cls-222">e</tspan><tspan x="79.54" y="0" class="cls-223">K</tspan><tspan x="90.93" y="0" class="cls-224">i</tspan><tspan x="95.4" y="0" class="cls-225">t</tspan><tspan x="102.8" y="0" class="cls-226">,</tspan><tspan x="107.12" y="0" class="cls-227"> </tspan><tspan x="111.58" y="-4.98" class="cls-228">..</tspan><tspan x="120.61" y="-4.98" class="cls-227">.</tspan></text><rect width="60" height="50" x="30.24" y="167.3" class="cls-73"/><text class="cls-229" transform="translate(35.86 196.84)">M<tspan x="12.75" y="0" class="cls-230">o</tspan><tspan x="22.03" y="0" class="cls-231">bi</tspan><tspan x="35.64" y="0" class="cls-232">l</tspan><tspan x="39.68" y="0" class="cls-233">e</tspan></text><rect width="159.75" height="49.75" x="91.36" y="228.65" class="cls-101"/><path d="M251,228.78v49.5H91.49v-49.5H251m.25-.25h-160v50h160v-50Z"/><text class="cls-234" transform="translate(100.89 261.51)">O<tspan x="12.55" y="0" class="cls-235">B</tspan><tspan x="25.21" y="0" class="cls-236">S</tspan><tspan x="36.54" y="0" class="cls-226">,</tspan><tspan x="40.85" y="0" class="cls-227"> </tspan><tspan x="45.32" y="0" class="cls-132">W</tspan><tspan x="59.8" y="0" class="cls-237">e</tspan><tspan x="70.15" y="0" class="cls-238">b</tspan><tspan x="81.24" y="0" class="cls-239">c</tspan><tspan x="91.7" y="0" class="cls-240">a</tspan><tspan x="101.88" y="0" class="cls-241">m</tspan><tspan x="118.29" y="0" class="cls-226">,</tspan><tspan x="122.61" y="0" class="cls-227"> </tspan><tspan x="127.07" y="-4.98" class="cls-228">..</tspan><tspan x="136.1" y="-4.98" class="cls-227">.</tspan></text><rect width="60" height="50" x="30.24" y="228.53" class="cls-73"/><text class="cls-242" transform="translate(49.58 258.07)">P<tspan x="10.54" y="0" class="cls-233">C</tspan></text><text class="cls-243" transform="translate(765.95 220.52) scale(0.98 1)">O<tspan x="9.61" y="0" class="cls-244">V</tspan><tspan x="19.59" y="0" class="cls-245">T</tspan><tspan x="27.98" y="0" class="cls-246"> </tspan><tspan x="31.54" y="0" class="cls-247">o</tspan><tspan x="39.37" y="0" class="cls-248">v</tspan><tspan x="46.87" y="0" class="cls-249">e</tspan><tspan x="54.67" y="0" class="cls-250">r </tspan><tspan x="63.16" y="0" class="cls-251">S</tspan><tspan x="72.08" y="0" class="cls-252">R</tspan><tspan x="81.65" y="0" class="cls-245">T</tspan></text><rect width="160" height="50" x="730.2" y="228.73" class="cls-3"/><text class="cls-253" transform="translate(772.43 249.46)">M<tspan x="13.53" y="0" class="cls-254">a</tspan><tspan x="22.65" y="0" class="cls-255">t</tspan><tspan x="28.57" y="0" class="cls-256">c</tspan><tspan x="37.72" y="0" class="cls-20">h </tspan><tspan x="52.29" y="0" class="cls-257">b</tspan><tspan x="62.04" y="0" class="cls-20">y </tspan><tspan class="cls-258"><tspan x="-25.46" y="19.98">D</tspan><tspan x="-13.48" y="19.98" class="cls-259">o</tspan><tspan x="-3.58" y="19.98" class="cls-260">m</tspan><tspan x="11.99" y="19.98" class="cls-261">ai</tspan><tspan x="25.32" y="19.98" class="cls-20">n </tspan><tspan x="39.92" y="19.98" class="cls-262">P</tspan><tspan x="51.06" y="19.98" class="cls-263">a</tspan><tspan x="60.55" y="19.98" class="cls-264">t</tspan><tspan x="67.67" y="19.98" class="cls-265">t</tspan><tspan x="74.21" y="19.98" class="cls-266">e</tspan><tspan x="83.85" y="19.98" class="cls-267">r</tspan><tspan x="90.45" y="19.98" class="cls-20">n</tspan></tspan></text><text class="cls-268" transform="translate(1211.94 296.53) scale(0.98 1)">O<tspan x="10.18" y="0" class="cls-269">u</tspan><tspan x="19.11" y="0" class="cls-270">t</tspan><tspan x="25.07" y="0" class="cls-191">p</tspan><tspan x="33.95" y="0" class="cls-138">u</tspan><tspan x="42.89" y="0" class="cls-271">t</tspan><tspan class="cls-146"><tspan x="-41.02" y="20">- </tspan><tspan x="-31.85" y="20" class="cls-272">U</tspan><tspan x="-23.26" y="20" class="cls-273">n</tspan><tspan x="-15.91" y="20" class="cls-149">d</tspan><tspan x="-8.68" y="20" class="cls-274">e</tspan><tspan x="-1.9" y="20">r </tspan><tspan x="5.45" y="20" class="cls-273">1</tspan><tspan x="10.31" y="20" class="cls-275">-</tspan><tspan x="16.24" y="20" class="cls-276">s</tspan><tspan x="22.4" y="20" class="cls-150">e</tspan><tspan x="29.26" y="20" class="cls-277">c</tspan><tspan x="35.95" y="20">: </tspan><tspan x="41.92" y="20" class="cls-196">W</tspan><tspan x="51.73" y="20" class="cls-197">e</tspan><tspan x="58.71" y="20" class="cls-198">b</tspan><tspan x="66.13" y="20" class="cls-199">R</tspan><tspan x="74.43" y="20" class="cls-200">T</tspan><tspan x="81.59" y="20" class="cls-152">C</tspan><tspan x="-37.27" y="35">- </tspan><tspan x="-28.1" y="35" class="cls-272">U</tspan><tspan x="-19.51" y="35" class="cls-273">n</tspan><tspan x="-12.16" y="35" class="cls-149">d</tspan><tspan x="-4.93" y="35" class="cls-274">e</tspan><tspan x="1.85" y="35">r </tspan><tspan x="9.2" y="35" class="cls-278">3</tspan><tspan x="16.4" y="35" class="cls-275">-</tspan><tspan x="22.34" y="35" class="cls-279">s</tspan><tspan x="28.49" y="35" class="cls-150">e</tspan><tspan x="35.36" y="35" class="cls-277">c</tspan><tspan x="42.04" y="35">: </tspan><tspan x="48.01" y="35" class="cls-280">LL</tspan><tspan x="62.28" y="35" class="cls-281">H</tspan><tspan x="71.18" y="35" class="cls-282">L</tspan><tspan x="78.41" y="35" class="cls-152">S</tspan></tspan></text><rect width="160" height="50" x="1155.93" y="228.73" class="cls-3"/><text class="cls-283" transform="translate(1188.46 258.79)">V<tspan x="11.5" y="0" class="cls-261">i</tspan><tspan x="15.38" y="0" class="cls-284">r</tspan><tspan x="22.49" y="0" class="cls-285">t</tspan><tspan x="29.15" y="0" class="cls-286">u</tspan><tspan x="39.53" y="0" class="cls-287">a</tspan><tspan x="48.99" y="0" class="cls-92">l </tspan><tspan x="57.05" y="0" class="cls-288">H</tspan><tspan x="69.44" y="0" class="cls-263">o</tspan><tspan x="79.33" y="0" class="cls-289">s</tspan><tspan x="88.25" y="0" class="cls-20">t</tspan></text></g></g></svg>