<svg xmlns="http://www.w3.org/2000/svg" viewBox="0 0 1560 400"><defs><style>.cls-1,.cls-157{fill:#333}.cls-2{fill:#4579bd}.cls-3,.cls-89{font-size:20px}.cls-135,.cls-3,.cls-51{fill:#fff}.cls-227,.cls-240,.cls-3,.cls-36,.cls-44,.cls-51{font-family:Rubik-Medium,Rubik}.cls-144,.cls-186,.cls-227,.cls-240,.cls-267,.cls-3,.cls-36,.cls-44,.cls-51{font-weight:500}.cls-3{letter-spacing:.01em}.cls-4{letter-spacing:-.02em}.cls-5{letter-spacing:-.01em}.cls-6{letter-spacing:-.02em}.cls-7{letter-spacing:-.01em}.cls-8{letter-spacing:-.03em}.cls-10,.cls-9{letter-spacing:-.01em}.cls-11,.cls-122{letter-spacing:-.02em}.cls-12,.cls-13{letter-spacing:-.01em}.cls-100,.cls-101,.cls-102,.cls-103,.cls-104,.cls-105,.cls-106,.cls-107,.cls-108,.cls-109,.cls-110,.cls-111,.cls-112,.cls-113,.cls-114,.cls-115,.cls-116,.cls-117,.cls-118,.cls-119,.cls-120,.cls-121,.cls-122,.cls-123,.cls-124,.cls-125,.cls-126,.cls-127,.cls-128,.cls-129,.cls-13,.cls-130,.cls-131,.cls-132,.cls-133,.cls-134,.cls-14,.cls-15,.cls-157,.cls-224,.cls-244,.cls-245,.cls-246,.cls-247,.cls-248,.cls-252,.cls-90,.cls-91,.cls-92,.cls-93,.cls-94,.cls-95,.cls-96,.cls-97,.cls-98,.cls-99{font-family:Rubik-Light,Rubik;font-weight:300}.cls-14,.cls-15,.cls-16,.cls-17{letter-spacing:-.02em}.cls-18,.cls-19{letter-spacing:-.01em}.cls-20,.cls-21,.cls-22,.cls-23,.cls-24,.cls-25,.cls-26,.cls-27{letter-spacing:-.02em}.cls-28{letter-spacing:-.03em}.cls-29{letter-spacing:-.01em}.cls-30{letter-spacing:-.02em}.cls-31{letter-spacing:-.01em}.cls-32,.cls-33,.cls-34{letter-spacing:-.02em}.cls-35{fill:#666}.cls-252,.cls-294,.cls-36,.cls-44,.cls-51{font-size:18px}.cls-36,.cls-44,.cls-65{fill:#ccc}.cls-36,.cls-55{letter-spacing:-.03em}.cls-37,.cls-38,.cls-39{letter-spacing:-.02em}.cls-40{letter-spacing:-.01em}.cls-257,.cls-41,.cls-42,.cls-43,.cls-44,.cls-45{letter-spacing:-.02em}.cls-46,.cls-47{letter-spacing:-.04em}.cls-48,.cls-49,.cls-94{letter-spacing:-.02em}.cls-50,.cls-89{fill:#f58a1f}.cls-300,.cls-51{letter-spacing:-.01em}.cls-52{letter-spacing:-.04em}.cls-53,.cls-54,.cls-56,.cls-57,.cls-58{letter-spacing:-.02em}.cls-59,.cls-60{letter-spacing:-.03em}.cls-61,.cls-62,.cls-63,.cls-64{letter-spacing:-.02em}.cls-136,.cls-181,.cls-214,.cls-232,.cls-66,.cls-75,.cls-83{font-size:19px}.cls-136,.cls-163,.cls-164,.cls-165,.cls-167,.cls-168,.cls-169,.cls-170,.cls-175,.cls-176,.cls-177,.cls-178,.cls-179,.cls-180,.cls-181,.cls-193,.cls-194,.cls-195,.cls-196,.cls-197,.cls-198,.cls-199,.cls-200,.cls-201,.cls-202,.cls-203,.cls-204,.cls-205,.cls-206,.cls-207,.cls-208,.cls-209,.cls-213,.cls-214,.cls-232,.cls-241,.cls-257,.cls-277,.cls-278,.cls-279,.cls-280,.cls-287,.cls-288,.cls-289,.cls-290,.cls-291,.cls-293,.cls-294,.cls-66,.cls-75,.cls-83{font-family:Rubik-Regular,Rubik}.cls-66,.cls-87{letter-spacing:-.02em}.cls-67{letter-spacing:-.03em}.cls-68,.cls-69{letter-spacing:-.04em}.cls-70,.cls-71{letter-spacing:-.02em}.cls-72{letter-spacing:-.01em}.cls-73,.cls-74,.cls-75,.cls-76{letter-spacing:-.02em}.cls-77{letter-spacing:-.03em}.cls-78{letter-spacing:-.01em}.cls-79{letter-spacing:-.02em}.cls-80{letter-spacing:-.03em}.cls-81,.cls-82{letter-spacing:-.04em}.cls-83{letter-spacing:-.01em}.cls-84{letter-spacing:-.04em}.cls-85{letter-spacing:-.02em}.cls-86{letter-spacing:-.03em}.cls-88{fill:#ffc10e}.cls-89{font-family:AdobeMyungjoStd-Medium-KSCpc-EUC-H,Adobe Myungjo Std;letter-spacing:-.02em}.cls-90{letter-spacing:-.04em}.cls-91{letter-spacing:.01em}.cls-93,.cls-95,.cls-96,.cls-97,.cls-98{letter-spacing:-.03em}.cls-99{letter-spacing:-.02em}.cls-100,.cls-101{letter-spacing:-.03em}.cls-102{letter-spacing:-.02em}.cls-103,.cls-104{letter-spacing:-.03em}.cls-105{letter-spacing:-.02em}.cls-106{letter-spacing:-.04em}.cls-107{letter-spacing:-.02em}.cls-108{letter-spacing:-.04em}.cls-109,.cls-110,.cls-111,.cls-112,.cls-113,.cls-114,.cls-115{letter-spacing:-.03em}.cls-116{letter-spacing:-.02em}.cls-117,.cls-118,.cls-119,.cls-120{letter-spacing:-.03em}.cls-121{letter-spacing:-.04em}.cls-123,.cls-124{letter-spacing:-.02em}.cls-125{letter-spacing:-.03em}.cls-126{letter-spacing:0}.cls-127{letter-spacing:-.04em}.cls-128{letter-spacing:-.02em}.cls-129{letter-spacing:-.03em}.cls-130{letter-spacing:-.02em}.cls-131{letter-spacing:-.01em}.cls-132,.cls-133,.cls-134{letter-spacing:-.03em}.cls-136{letter-spacing:-.02em}.cls-137{letter-spacing:-.01em}.cls-138,.cls-139,.cls-140{letter-spacing:-.03em}.cls-141{letter-spacing:-.01em}.cls-142{letter-spacing:.01em}.cls-143{letter-spacing:-.04em}.cls-144,.cls-186,.cls-241,.cls-267{font-size:15px}.cls-144,.cls-186,.cls-267{font-family:Rubik-MediumItalic,Rubik;font-style:italic}.cls-144,.cls-145{letter-spacing:-.03em}.cls-146{letter-spacing:-.05em}.cls-147{letter-spacing:-.02em}.cls-148{letter-spacing:-.1em}.cls-149{letter-spacing:-.03em}.cls-150{letter-spacing:-.02em}.cls-151{letter-spacing:-.03em}.cls-152{letter-spacing:-.01em}.cls-153,.cls-154{letter-spacing:-.02em}.cls-155{letter-spacing:-.01em}.cls-156,.cls-157{letter-spacing:-.02em}.cls-157{font-size:13px;font-style:normal}.cls-158{letter-spacing:-.01em}.cls-159{letter-spacing:-.03em}.cls-160,.cls-161{letter-spacing:-.02em}.cls-162{letter-spacing:-.03em}.cls-163,.cls-164,.cls-165,.cls-167,.cls-168,.cls-169,.cls-170,.cls-175,.cls-176,.cls-177,.cls-178,.cls-179,.cls-180,.cls-193,.cls-194,.cls-195,.cls-196,.cls-197,.cls-198,.cls-199,.cls-200,.cls-201,.cls-202,.cls-203,.cls-204,.cls-205,.cls-206,.cls-207,.cls-208,.cls-209,.cls-213,.cls-257,.cls-277,.cls-278,.cls-279,.cls-280,.cls-287,.cls-288,.cls-289,.cls-290,.cls-291,.cls-293{font-weight:400}.cls-163,.cls-164,.cls-165,.cls-166,.cls-167,.cls-168,.cls-169,.cls-170,.cls-175,.cls-176,.cls-177,.cls-178,.cls-179,.cls-180,.cls-193,.cls-194,.cls-195,.cls-196,.cls-197,.cls-198,.cls-199,.cls-200,.cls-201,.cls-202,.cls-203,.cls-204,.cls-205,.cls-206,.cls-207,.cls-208,.cls-209,.cls-213,.cls-277,.cls-278,.cls-279,.cls-280,.cls-287,.cls-288,.cls-289,.cls-290,.cls-291,.cls-292,.cls-293{fill:#000}.cls-164{letter-spacing:-.02em}.cls-165{letter-spacing:-.04em}.cls-167{letter-spacing:-.02em}.cls-168{letter-spacing:-.01em}.cls-169{letter-spacing:-.03em}.cls-170{letter-spacing:0}.cls-171,.cls-172,.cls-173,.cls-174{letter-spacing:-.03em}.cls-175,.cls-176{letter-spacing:-.02em}.cls-177,.cls-178{letter-spacing:-.03em}.cls-179{letter-spacing:.02em}.cls-180,.cls-292{letter-spacing:-.02em}.cls-181,.cls-182{letter-spacing:-.03em}.cls-183{letter-spacing:-.02em}.cls-184{letter-spacing:-.01em}.cls-185{letter-spacing:.01em}.cls-186,.cls-187,.cls-188,.cls-189,.cls-248{letter-spacing:-.02em}.cls-190,.cls-191,.cls-192{letter-spacing:-.03em}.cls-193{letter-spacing:-.05em}.cls-194,.cls-195,.cls-196{letter-spacing:-.02em}.cls-197{letter-spacing:-.03em}.cls-198{letter-spacing:-.04em}.cls-199{letter-spacing:-.02em}.cls-200{letter-spacing:-.03em}.cls-201{letter-spacing:-.15em}.cls-202{letter-spacing:-.03em}.cls-203{letter-spacing:-.11em}.cls-204{letter-spacing:-.02em}.cls-205{letter-spacing:-.03em}.cls-206{letter-spacing:-.02em}.cls-207{letter-spacing:-.09em}.cls-208,.cls-209,.cls-212{letter-spacing:-.02em}.cls-210,.cls-211{letter-spacing:-.03em}.cls-213{letter-spacing:-.02em}.cls-214{letter-spacing:0}.cls-215{letter-spacing:-.03em}.cls-216{letter-spacing:-.01em}.cls-217{letter-spacing:-.02em}.cls-218{letter-spacing:0}.cls-219{letter-spacing:-.01em}.cls-220{letter-spacing:-.02em}.cls-221{letter-spacing:0}.cls-222{letter-spacing:-.01em}.cls-223{letter-spacing:0}.cls-224,.cls-225,.cls-226{letter-spacing:-.01em}.cls-227,.cls-240{font-size:16px}.cls-227,.cls-228,.cls-229,.cls-230,.cls-231{letter-spacing:-.01em}.cls-232{letter-spacing:-.02em}.cls-233{letter-spacing:0}.cls-234{letter-spacing:-.03em}.cls-235{letter-spacing:-.02em}.cls-236{letter-spacing:-.01em}.cls-237{letter-spacing:0}.cls-238,.cls-239{letter-spacing:-.02em}.cls-240{letter-spacing:0}.cls-241{letter-spacing:-.04em}.cls-242{letter-spacing:.01em}.cls-243{letter-spacing:-.01em}.cls-244{letter-spacing:-.02em}.cls-245,.cls-246{letter-spacing:-.04em}.cls-247,.cls-249,.cls-269{letter-spacing:-.03em}.cls-250,.cls-251{letter-spacing:-.02em}.cls-252,.cls-253,.cls-254,.cls-255{letter-spacing:-.03em}.cls-256{letter-spacing:-.04em}.cls-258,.cls-259{letter-spacing:-.02em}.cls-260{letter-spacing:-.03em}.cls-261,.cls-262{letter-spacing:-.02em}.cls-263{letter-spacing:0}.cls-264{letter-spacing:-.03em}.cls-265{letter-spacing:-.02em}.cls-266{letter-spacing:-.01em}.cls-267{letter-spacing:-.02em}.cls-268{letter-spacing:-.03em}.cls-270,.cls-271{letter-spacing:-.02em}.cls-272{letter-spacing:-.03em}.cls-273{letter-spacing:0}.cls-274,.cls-279{letter-spacing:-.03em}.cls-275,.cls-276{letter-spacing:-.02em}.cls-277{letter-spacing:-.04em}.cls-278,.cls-280{letter-spacing:-.01em}.cls-281{letter-spacing:-.03em}.cls-282,.cls-283,.cls-284,.cls-285,.cls-286{letter-spacing:-.02em}.cls-287{letter-spacing:-.03em}.cls-288{letter-spacing:-.02em}.cls-289{letter-spacing:-.03em}.cls-290,.cls-291{letter-spacing:-.04em}.cls-293{letter-spacing:-.01em}.cls-294{letter-spacing:-.02em}.cls-295{letter-spacing:.02em}.cls-296{letter-spacing:-.02em}.cls-297,.cls-298,.cls-299{letter-spacing:-.03em}</style></defs><g id="Layer_2" data-name="Layer 2"><g id="Layer_1-2" data-name="Layer 1"><rect width="1560" height="400" class="cls-1"/><polygon points="1530 57.9 1477.49 22.5 1477.49 38.84 30 38.84 30 76.96 1477.49 76.96 1477.49 93.31 1530 57.9" class="cls-2"/><text class="cls-3" transform="translate(552.22 64.29)">L<tspan x="11.71" y="0" class="cls-4">a</tspan><tspan x="22.76" y="0" class="cls-5">r</tspan><tspan x="30.86" y="0" class="cls-6">g</tspan><tspan x="42.79" y="0" class="cls-7">e</tspan><tspan x="54.07" y="0" class="cls-8">-</tspan><tspan x="63.03" y="0" class="cls-9">S</tspan><tspan x="75.67" y="0" class="cls-10">c</tspan><tspan x="86.94" y="0" class="cls-11">al</tspan><tspan x="102.9" y="0" class="cls-12">e</tspan><tspan x="114.14" y="0" class="cls-13"> </tspan><tspan x="119" y="0" class="cls-14">a</tspan><tspan x="129.24" y="0" class="cls-15">n</tspan><tspan x="140.59" y="0" class="cls-13">d </tspan><tspan x="156.75" y="0" class="cls-16">S</tspan><tspan x="169.24" y="0" class="cls-17">u</tspan><tspan x="181.26" y="0" class="cls-18">b</tspan><tspan x="193.24" y="0" class="cls-8">-</tspan><tspan x="202.2" y="0" class="cls-19">S</tspan><tspan x="214.87" y="0" class="cls-20">e</tspan><tspan x="226.09" y="0" class="cls-21">c</tspan><tspan x="237.19" y="0" class="cls-22">o</tspan><tspan x="248.67" y="0" class="cls-23">n</tspan><tspan x="260.8" y="0" class="cls-12">d </tspan><tspan x="277.04" y="0">L</tspan><tspan x="288.75" y="0" class="cls-24">a</tspan><tspan x="299.8" y="0" class="cls-25">t</tspan><tspan x="307.96" y="0" class="cls-26">e</tspan><tspan x="319.16" y="0" class="cls-27">n</tspan><tspan x="331.26" y="0" class="cls-28">c</tspan><tspan x="342.16" y="0" class="cls-12">y </tspan><tspan x="357.62" y="0" class="cls-29">S</tspan><tspan x="370.34" y="0" class="cls-30">t</tspan><tspan x="378.57" y="0" class="cls-31">r</tspan><tspan x="386.64" y="0" class="cls-32">e</tspan><tspan x="397.85" y="0" class="cls-4">a</tspan><tspan x="408.9" y="0" class="cls-33">m</tspan><tspan x="426.55" y="0" class="cls-34">in</tspan><tspan x="443.54" y="0" class="cls-12">g</tspan></text><rect width="434" height="32" x="30.46" y="114.15" class="cls-35" rx="16"/><text class="cls-36" transform="translate(191.37 136.12)">M<tspan x="14.14" y="0" class="cls-37">e</tspan><tspan x="24.17" y="0" class="cls-38">d</tspan><tspan x="34.77" y="0" class="cls-39">i</tspan><tspan x="39.08" y="0" class="cls-37">a </tspan><tspan x="52.76" y="0" class="cls-40">S</tspan><tspan x="64.06" y="0" class="cls-39">o</tspan><tspan x="74.28" y="0" class="cls-41">u</tspan><tspan x="85.03" y="0" class="cls-42">r</tspan><tspan x="92.25" y="0" class="cls-43">c</tspan><tspan x="102.16" y="0" class="cls-37">e</tspan></text><rect width="161" height="32" x="1368.54" y="114.15" class="cls-35" rx="16"/><text class="cls-44" transform="translate(1422.93 136.12)">P<tspan x="11.46" y="0" class="cls-45">l</tspan><tspan x="15.83" y="0" class="cls-46">a</tspan><tspan x="25.38" y="0" class="cls-47">y</tspan><tspan x="35.03" y="0" class="cls-48">e</tspan><tspan x="45.03" y="0" class="cls-49">r</tspan></text><rect width="801" height="32" x="516.14" y="114.15" class="cls-50" rx="16"/><text class="cls-51" transform="translate(842.2 135.83)">O<tspan x="12.25" y="0" class="cls-52">v</tspan><tspan x="21.88" y="0" class="cls-53">e</tspan><tspan x="31.88" y="0" class="cls-54">n</tspan><tspan x="42.66" y="0" class="cls-55">M</tspan><tspan x="56.8" y="0" class="cls-56">e</tspan><tspan x="66.83" y="0" class="cls-57">d</tspan><tspan x="77.43" y="0" class="cls-58">i</tspan><tspan x="81.74" y="0" class="cls-59">a</tspan><tspan x="91.56" y="0" class="cls-60">E</tspan><tspan x="102.25" y="0" class="cls-61">n</tspan><tspan x="113.07" y="0" class="cls-62">g</tspan><tspan x="123.73" y="0" class="cls-63">i</tspan><tspan x="128.06" y="0" class="cls-64">n</tspan><tspan x="138.86" y="0" class="cls-56">e</tspan></text><rect width="159.75" height="49.75" x="1369.17" y="288.94" class="cls-65"/><path d="M1528.79,289.06v49.5h-159.5v-49.5h159.5m.25-.25H1369v50h160v-50Z"/><text class="cls-66" transform="translate(1403.24 319.31)">P<tspan x="11.78" y="0" class="cls-67">l</tspan><tspan x="15.92" y="0" class="cls-68">a</tspan><tspan x="25.67" y="0" class="cls-69">y</tspan><tspan x="35.45" y="0" class="cls-70">e</tspan><tspan x="45.62" y="0" class="cls-71">r </tspan><tspan x="56.74" y="0" class="cls-72">A</tspan><tspan x="69.2" y="0" class="cls-73">p</tspan><tspan x="80.06" y="0" class="cls-74">p</tspan></text><rect width="159.75" height="49.75" x="1369.17" y="227.71" class="cls-65"/><path d="M1528.79,227.84v49.5h-159.5v-49.5h159.5m.25-.25H1369v50h160v-50Z"/><text class="cls-75" transform="translate(1390.51 258.09)">H<tspan x="13.21" y="0" class="cls-76">T</tspan><tspan x="23.85" y="0" class="cls-77">M</tspan><tspan x="38.33" y="0" class="cls-78">L</tspan><tspan x="48.82" y="0" class="cls-71">5 </tspan><tspan x="64" y="0" class="cls-79">P</tspan><tspan x="75.79" y="0" class="cls-80">l</tspan><tspan x="79.93" y="0" class="cls-81">a</tspan><tspan x="89.67" y="0" class="cls-82">y</tspan><tspan x="99.45" y="0" class="cls-70">e</tspan><tspan x="109.63" y="0" class="cls-71">r</tspan></text><rect width="159.75" height="49.75" x="1369.17" y="166.48" class="cls-65"/><path d="M1528.79,166.61v49.5h-159.5v-49.5h159.5m.25-.25H1369v50h160v-50Z"/><text class="cls-83" transform="translate(1400.75 196.86)">O<tspan x="12.58" y="0" class="cls-84">v</tspan><tspan x="22.38" y="0" class="cls-85">e</tspan><tspan x="32.55" y="0" class="cls-86">n</tspan><tspan x="43.52" y="0" class="cls-87">P</tspan><tspan x="55.3" y="0" class="cls-67">l</tspan><tspan x="59.44" y="0" class="cls-68">a</tspan><tspan x="69.19" y="0" class="cls-69">y</tspan><tspan x="78.97" y="0" class="cls-70">e</tspan><tspan x="89.14" y="0" class="cls-71">r</tspan></text><rect width="1081" height="190" x="269.44" y="157.48" class="cls-88"/><text class="cls-89" transform="translate(419.11 372.75)">※ <tspan x="25.86" y="0" class="cls-90">O</tspan><tspan x="38.34" y="0" class="cls-91">V</tspan><tspan x="51.32" y="0" class="cls-92">T </tspan><tspan x="66.81" y="0" class="cls-93">i</tspan><tspan x="70.64" y="0" class="cls-94">s a </tspan><tspan x="99.92" y="0" class="cls-95">p</tspan><tspan x="111.02" y="0" class="cls-96">r</tspan><tspan x="117.45" y="0" class="cls-97">o</tspan><tspan x="127.99" y="0" class="cls-98">t</tspan><tspan x="134.52" y="0" class="cls-99">oc</tspan><tspan x="155.48" y="0" class="cls-100">o</tspan><tspan x="166.08" y="0" class="cls-92">l </tspan><tspan x="174.94" y="0" class="cls-101">d</tspan><tspan x="186" y="0" class="cls-102">e</tspan><tspan x="196.44" y="0" class="cls-103">fi</tspan><tspan x="205.84" y="0" class="cls-104">n</tspan><tspan x="217.09" y="0" class="cls-105">e</tspan><tspan x="227.62" y="0" class="cls-92">d </tspan><tspan x="243.58" y="0" class="cls-106">b</tspan><tspan x="254.4" y="0" class="cls-92">y </tspan><tspan x="269.4" y="0" class="cls-107">O</tspan><tspan x="282.33" y="0" class="cls-108">v</tspan><tspan x="292.28" y="0" class="cls-109">e</tspan><tspan x="302.64" y="0" class="cls-110">n</tspan><tspan x="313.8" y="0" class="cls-111">M</tspan><tspan x="328.82" y="0" class="cls-105">e</tspan><tspan x="339.35" y="0" class="cls-112">d</tspan><tspan x="350.35" y="0" class="cls-113">i</tspan><tspan x="354.15" y="0" class="cls-114">E</tspan><tspan x="365.37" y="0" class="cls-100">n</tspan><tspan x="376.61" y="0" class="cls-115">gi</tspan><tspan x="391.47" y="0" class="cls-104">n</tspan><tspan x="402.72" y="0" class="cls-116">e </tspan><tspan x="418" y="0" class="cls-117">f</tspan><tspan x="424.63" y="0" class="cls-118">o</tspan><tspan x="435.24" y="0" class="cls-116">r </tspan><tspan x="446.56" y="0" class="cls-119">re</tspan><tspan x="463.31" y="0" class="cls-120">l</tspan><tspan x="467.25" y="0" class="cls-121">a</tspan><tspan x="477.18" y="0" class="cls-116">y </tspan><tspan x="492.18" y="0" class="cls-122">st</tspan><tspan x="508.44" y="0" class="cls-119">r</tspan><tspan x="514.83" y="0" class="cls-123">e</tspan><tspan x="525.33" y="0" class="cls-111">am</tspan><tspan x="552.46" y="0" class="cls-94">s </tspan><tspan x="566.66" y="0" class="cls-124">b</tspan><tspan x="577.82" y="0" class="cls-125">e</tspan><tspan x="588.15" y="0" class="cls-126">t</tspan><tspan x="595.26" y="0" class="cls-127">w</tspan><tspan x="610.22" y="0" class="cls-128">e</tspan><tspan x="620.75" y="0" class="cls-129">e</tspan><tspan x="631.12" y="0" class="cls-116">n </tspan><tspan x="647.28" y="0" class="cls-130">O</tspan><tspan x="660.05" y="0" class="cls-131">r</tspan><tspan x="666.74" y="0" class="cls-132">i</tspan><tspan x="670.6" y="0" class="cls-115">gi</tspan><tspan x="685.45" y="0" class="cls-94">n </tspan><tspan x="701.61" y="0" class="cls-111">a</tspan><tspan x="711.75" y="0" class="cls-104">n</tspan><tspan x="723.01" y="0" class="cls-94">d </tspan><tspan x="738.97" y="0" class="cls-133">E</tspan><tspan x="750.13" y="0" class="cls-134">dg</tspan><tspan x="772.26" y="0" class="cls-94">e</tspan></text><rect width="159.75" height="49.75" x="517.77" y="166.28" class="cls-135"/><path d="M677.39,166.41v49.5H517.89v-49.5h159.5m.25-.25h-160v50h160v-50Z"/><text class="cls-136" transform="translate(542.47 196.66)">O<tspan x="12.47" y="0" class="cls-137">r</tspan><tspan x="19.44" y="0" class="cls-138">i</tspan><tspan x="23.52" y="0" class="cls-139">g</tspan><tspan x="34.33" y="0" class="cls-140">i</tspan><tspan x="38.42" y="0" class="cls-71">n </tspan><tspan x="53.82" y="0" class="cls-141">S</tspan><tspan x="65.38" y="0" class="cls-85">e</tspan><tspan x="75.55" y="0" class="cls-142">r</tspan><tspan x="82.93" y="0" class="cls-143">v</tspan><tspan x="92.73" y="0" class="cls-85">e</tspan><tspan x="102.9" y="0" class="cls-71">r</tspan></text><text class="cls-144" transform="translate(540.03 295.38) scale(0.98 1)">L<tspan x="8.22" y="0" class="cls-145">i</tspan><tspan x="11.69" y="0" class="cls-146">v</tspan><tspan x="19.51" y="0" class="cls-147">e </tspan><tspan x="31.03" y="0" class="cls-148">T</tspan><tspan x="38.6" y="0" class="cls-149">r</tspan><tspan x="44.51" y="0" class="cls-150">a</tspan><tspan x="53.37" y="0" class="cls-151">n</tspan><tspan x="62.29" y="0" class="cls-152">s</tspan><tspan x="70.07" y="0" class="cls-153">co</tspan><tspan x="86.93" y="0" class="cls-154">d</tspan><tspan x="95.87" y="0" class="cls-155">i</tspan><tspan x="99.61" y="0" class="cls-156">n</tspan><tspan x="108.69" y="0" class="cls-147">g</tspan><tspan class="cls-157"><tspan x="2.85" y="20">- </tspan><tspan x="12.01" y="20" class="cls-158">V</tspan><tspan x="20.14" y="20" class="cls-159">i</tspan><tspan x="22.7" y="20" class="cls-160">d</tspan><tspan x="29.92" y="20" class="cls-161">e</tspan><tspan x="36.79" y="20" class="cls-162">o</tspan><tspan x="43.69" y="20">: </tspan><tspan x="49.66" y="20" class="cls-163">V</tspan><tspan x="57.91" y="20" class="cls-164">P</tspan><tspan x="66.02" y="20" class="cls-165">8</tspan><tspan x="73.74" y="20" class="cls-166">, </tspan><tspan x="79.66" y="20" class="cls-167">H</tspan><tspan x="88.67" y="20" class="cls-168">.</tspan><tspan x="91.84" y="20" class="cls-169">2</tspan><tspan x="99.07" y="20" class="cls-170">6</tspan><tspan x="106.97" y="20" class="cls-163">4</tspan><tspan x="4.58" y="35">- </tspan><tspan x="13.75" y="35" class="cls-171">A</tspan><tspan x="21.8" y="35" class="cls-160">u</tspan><tspan x="29.1" y="35" class="cls-172">d</tspan><tspan x="36.29" y="35" class="cls-173">i</tspan><tspan x="38.86" y="35" class="cls-174">o</tspan><tspan x="45.76" y="35">: </tspan><tspan x="51.72" y="35" class="cls-175">O</tspan><tspan x="60.28" y="35" class="cls-176">p</tspan><tspan x="67.72" y="35" class="cls-177">u</tspan><tspan x="75.21" y="35" class="cls-178">s</tspan><tspan x="81.46" y="35" class="cls-166">, </tspan><tspan x="87.38" y="35" class="cls-179">A</tspan><tspan x="96.34" y="35" class="cls-169">A</tspan><tspan x="104.66" y="35" class="cls-180">C</tspan></tspan></text><rect width="159.75" height="49.75" x="517.77" y="227.51" class="cls-135"/><path d="M677.39,227.63v49.5H517.89v-49.5h159.5m.25-.25h-160v50h160v-50Z"/><text class="cls-136" transform="translate(542.47 257.88)">O<tspan x="12.47" y="0" class="cls-137">r</tspan><tspan x="19.44" y="0" class="cls-138">i</tspan><tspan x="23.52" y="0" class="cls-139">g</tspan><tspan x="34.33" y="0" class="cls-140">i</tspan><tspan x="38.42" y="0" class="cls-71">n </tspan><tspan x="53.82" y="0" class="cls-141">S</tspan><tspan x="65.38" y="0" class="cls-85">e</tspan><tspan x="75.55" y="0" class="cls-142">r</tspan><tspan x="82.93" y="0" class="cls-143">v</tspan><tspan x="92.73" y="0" class="cls-85">e</tspan><tspan x="102.9" y="0" class="cls-71">r</tspan></text><rect width="159.75" height="49.75" x="943.77" y="288.94" class="cls-135"/><path d="M1103.39,289.06v49.5H943.89v-49.5h159.5m.25-.25h-160v50h160v-50Z"/><text class="cls-181" transform="translate(971.84 319.31)">E<tspan x="10.86" y="0" class="cls-182">dg</tspan><tspan x="32.55" y="0" class="cls-183">e </tspan><tspan x="47.08" y="0" class="cls-184">S</tspan><tspan x="58.64" y="0" class="cls-70">e</tspan><tspan x="68.81" y="0" class="cls-185">r</tspan><tspan x="76.19" y="0" class="cls-84">v</tspan><tspan x="85.98" y="0" class="cls-85">e</tspan><tspan x="96.16" y="0" class="cls-71">r</tspan></text><rect width="159.75" height="49.75" x="943.77" y="227.71" class="cls-135"/><path d="M1103.39,227.84v49.5H943.89v-49.5h159.5m.25-.25h-160v50h160v-50Z"/><text class="cls-181" transform="translate(971.84 258.09)">E<tspan x="10.86" y="0" class="cls-182">dg</tspan><tspan x="32.55" y="0" class="cls-183">e </tspan><tspan x="47.08" y="0" class="cls-184">S</tspan><tspan x="58.64" y="0" class="cls-70">e</tspan><tspan x="68.81" y="0" class="cls-185">r</tspan><tspan x="76.19" y="0" class="cls-84">v</tspan><tspan x="85.98" y="0" class="cls-85">e</tspan><tspan x="96.16" y="0" class="cls-71">r</tspan></text><rect width="159.75" height="49.75" x="943.77" y="166.48" class="cls-135"/><path d="M1103.39,166.61v49.5H943.89v-49.5h159.5m.25-.25h-160v50h160v-50Z"/><text class="cls-181" transform="translate(971.84 196.86)">E<tspan x="10.86" y="0" class="cls-182">dg</tspan><tspan x="32.55" y="0" class="cls-183">e </tspan><tspan x="47.08" y="0" class="cls-184">S</tspan><tspan x="58.64" y="0" class="cls-70">e</tspan><tspan x="68.81" y="0" class="cls-185">r</tspan><tspan x="76.19" y="0" class="cls-84">v</tspan><tspan x="85.98" y="0" class="cls-85">e</tspan><tspan x="96.16" y="0" class="cls-71">r</tspan></text><text class="cls-186" transform="translate(366.47 208.98) scale(0.98 1)">I<tspan x="4.21" y="0" class="cls-187">n</tspan><tspan x="13.28" y="0" class="cls-188">p</tspan><tspan x="22.16" y="0" class="cls-149">u</tspan><tspan x="31.1" y="0" class="cls-188">t</tspan><tspan class="cls-157"><tspan x="-91.21" y="20">- </tspan><tspan x="-82.04" y="20" class="cls-189">P</tspan><tspan x="-74.09" y="20" class="cls-190">u</tspan><tspan x="-66.85" y="20" class="cls-191">l</tspan><tspan x="-64.3" y="20" class="cls-192">l</tspan><tspan x="-61.78" y="20">: </tspan><tspan x="-55.81" y="20" class="cls-193">W</tspan><tspan x="-46" y="20" class="cls-194">e</tspan><tspan x="-39.02" y="20" class="cls-195">b</tspan><tspan x="-31.6" y="20" class="cls-196">R</tspan><tspan x="-23.3" y="20" class="cls-197">T</tspan><tspan x="-16.14" y="20" class="cls-198">C</tspan><tspan x="-8.03" y="20" class="cls-166">, </tspan><tspan x="-2.12" y="20" class="cls-196">R</tspan><tspan x="6.19" y="20" class="cls-199">T</tspan><tspan x="13.49" y="20" class="cls-200">M</tspan><tspan x="23.44" y="20" class="cls-201">P</tspan><tspan x="29.81" y="20" class="cls-166">, </tspan><tspan x="35.72" y="20" class="cls-202">S</tspan><tspan x="43.47" y="20" class="cls-196">R</tspan><tspan x="51.77" y="20" class="cls-203">T</tspan><tspan x="57.82" y="20" class="cls-166">, </tspan><tspan x="63.74" y="20" class="cls-200">M</tspan><tspan x="73.68" y="20" class="cls-204">P</tspan><tspan x="81.75" y="20" class="cls-205">E</tspan><tspan x="89.22" y="20" class="cls-206">G</tspan><tspan x="97.77" y="20" class="cls-207">-</tspan><tspan x="102.94" y="20" class="cls-208">2 </tspan><tspan x="113.23" y="20" class="cls-209">T</tspan><tspan x="120.56" y="20" class="cls-163">S</tspan><tspan x="-18.96" y="35">- </tspan><tspan x="-9.8" y="35" class="cls-189">P</tspan><tspan x="-1.85" y="35" class="cls-210">us</tspan><tspan x="11.45" y="35" class="cls-211">h</tspan><tspan x="18.71" y="35" class="cls-212">: </tspan><tspan x="24.68" y="35" class="cls-213">R</tspan><tspan x="32.99" y="35" class="cls-209">T</tspan><tspan x="40.31" y="35" class="cls-202">S</tspan><tspan x="48.06" y="35" class="cls-163">P</tspan></tspan></text><path d="M508.1,201.08a.74.74,0,0,1-.75-.75v-5.22H241.68a.75.75,0,0,1-.75-.75v-6a.75.75,0,0,1,.75-.75H507.35v-5.23a.74.74,0,0,1,.37-.64.76.76,0,0,1,.38-.11.7.7,0,0,1,.37.11l15.55,9a.76.76,0,0,1,0,1.3l-15.55,9A.69.69,0,0,1,508.1,201.08Z"/><path d="M508.1,182.39l15.54,9-15.54,9v-6H241.68v-6H508.1v-6m0-1.5a1.43,1.43,0,0,0-.75.2,1.48,1.48,0,0,0-.75,1.3v4.47H241.68a1.5,1.5,0,0,0-1.5,1.5v6a1.5,1.5,0,0,0,1.5,1.5H506.6v4.47a1.48,1.48,0,0,0,.75,1.3,1.51,1.51,0,0,0,1.5,0l15.54-9a1.5,1.5,0,0,0,0-2.6l-15.54-9a1.43,1.43,0,0,0-.75-.2Z" class="cls-88"/><path d="M508.1,262.11a.86.86,0,0,1-.38-.1.77.77,0,0,1-.37-.65v-5.23H241.68a.74.74,0,0,1-.75-.75v-6a.75.75,0,0,1,.75-.75H507.35v-5.22a.74.74,0,0,1,.75-.75.69.69,0,0,1,.37.1l15.55,9a.76.76,0,0,1,.37.65.74.74,0,0,1-.37.65l-15.55,9A.79.79,0,0,1,508.1,262.11Z"/><path d="M508.1,243.41l15.54,9-15.54,9v-6H241.68v-6H508.1v-6m0-1.5a1.43,1.43,0,0,0-.75.2,1.49,1.49,0,0,0-.75,1.3v4.47H241.68a1.5,1.5,0,0,0-1.5,1.5v6a1.5,1.5,0,0,0,1.5,1.5H506.6v4.48a1.5,1.5,0,0,0,.75,1.3,1.51,1.51,0,0,0,1.5,0l15.54-9a1.5,1.5,0,0,0,0-2.6l-15.54-9a1.43,1.43,0,0,0-.75-.2Z" class="cls-88"/><path d="M1113.18,323.54a.72.72,0,0,1-.37-.11l-15.54-9a.73.73,0,0,1-.38-.65.74.74,0,0,1,.38-.65l15.54-9a.71.71,0,0,1,.37-.1.74.74,0,0,1,.75.75v5.22h17.84V256.34h-17.84v5.22a.74.74,0,0,1-.75.75.71.71,0,0,1-.37-.1l-15.54-9a.75.75,0,0,1,0-1.3l15.54-9a.82.82,0,0,1,.37-.1.86.86,0,0,1,.38.1.77.77,0,0,1,.37.65v5.23h17.84V194.91h-17.84v5.22a.74.74,0,0,1-.75.75.71.71,0,0,1-.37-.1l-15.54-9a.74.74,0,0,1,0-1.29l15.54-9a.82.82,0,0,1,.37-.1.86.86,0,0,1,.38.1.76.76,0,0,1,.37.65v5.23h21.59a3.75,3.75,0,0,1,3.75,3.75v57.68h194.19V191.16a3.75,3.75,0,0,1,3.75-3.75h21.54v-5.23a.76.76,0,0,1,.37-.65.86.86,0,0,1,.38-.1.79.79,0,0,1,.37.1l15.55,9a.74.74,0,0,1,.37.65.76.76,0,0,1-.37.65l-15.55,9a.69.69,0,0,1-.37.1.74.74,0,0,1-.75-.75v-5.22H1341v53.93h17.79v-5.23a.77.77,0,0,1,.37-.65.86.86,0,0,1,.38-.1.79.79,0,0,1,.37.1l15.55,9a.76.76,0,0,1,0,1.3l-15.55,9a.69.69,0,0,1-.37.1.74.74,0,0,1-.75-.75v-5.22H1341v53.72h17.79v-5.22a.74.74,0,0,1,.75-.75.69.69,0,0,1,.37.1l15.55,9a.76.76,0,0,1,0,1.3l-15.55,9a.7.7,0,0,1-.37.11.76.76,0,0,1-.38-.11.74.74,0,0,1-.37-.64v-5.23h-21.54a3.75,3.75,0,0,1-3.75-3.75V256.34H1139.27v57.47a3.75,3.75,0,0,1-3.75,3.75h-21.59v5.23a.74.74,0,0,1-.37.64A.76.76,0,0,1,1113.18,323.54Z"/><path d="M1359.5,182.18l15.54,9-15.54,9v-6h-19.29v55.43h19.29v-6l15.54,9-15.54,9v-6h-19.29v55.22h19.29v-6l15.54,9-15.54,9v-6h-22.29a3,3,0,0,1-3-3V255.59H1138.52v58.22a3,3,0,0,1-3,3h-22.34v6l-15.54-9,15.54-9v6h19.34V255.59h-19.34v6l-15.54-9,15.54-9v6h19.34V194.16h-19.34v6l-15.54-9,15.54-9v6h22.34a3,3,0,0,1,3,3v58.43h195.69V191.16a3,3,0,0,1,3-3h22.29v-6m-246.32-1.5a1.56,1.56,0,0,0-.75.2l-15.54,9a1.49,1.49,0,0,0,0,2.59l15.54,9a1.56,1.56,0,0,0,.75.2,1.53,1.53,0,0,0,.75-.2,1.49,1.49,0,0,0,.75-1.3v-4.47H1131v52.43h-16.34v-4.48a1.47,1.47,0,0,0-.75-1.29,1.44,1.44,0,0,0-.75-.21,1.47,1.47,0,0,0-.75.21l-15.54,9a1.5,1.5,0,0,0,0,2.6l15.54,9a1.46,1.46,0,0,0,.75.2,1.43,1.43,0,0,0,.75-.2,1.49,1.49,0,0,0,.75-1.3v-4.47H1131v52.22h-16.34v-4.47a1.48,1.48,0,0,0-.75-1.3,1.43,1.43,0,0,0-.75-.2,1.46,1.46,0,0,0-.75.2l-15.54,9a1.5,1.5,0,0,0,0,2.6l15.54,9a1.47,1.47,0,0,0,.75.21,1.44,1.44,0,0,0,.75-.21,1.47,1.47,0,0,0,.75-1.29v-4.48h20.84a4.51,4.51,0,0,0,4.5-4.5V257.09h192.69v56.72a4.51,4.51,0,0,0,4.5,4.5H1358v4.48a1.47,1.47,0,0,0,.75,1.29,1.44,1.44,0,0,0,1.5,0l15.54-9a1.5,1.5,0,0,0,0-2.6l-15.54-9a1.51,1.51,0,0,0-1.5,0,1.48,1.48,0,0,0-.75,1.3v4.47h-16.29V257.09H1358v4.47a1.49,1.49,0,0,0,.75,1.3,1.51,1.51,0,0,0,1.5,0l15.54-9a1.5,1.5,0,0,0,0-2.6l-15.54-9a1.44,1.44,0,0,0-1.5,0,1.47,1.47,0,0,0-.75,1.29v4.48h-16.29V195.66H1358v4.47a1.49,1.49,0,0,0,.75,1.3,1.51,1.51,0,0,0,1.5,0l15.54-9a1.5,1.5,0,0,0,0-2.6l-15.54-9a1.51,1.51,0,0,0-1.5,0,1.5,1.5,0,0,0-.75,1.3v4.48h-20.79a4.5,4.5,0,0,0-4.5,4.5v56.93H1140V191.16a4.5,4.5,0,0,0-4.5-4.5h-20.84v-4.48a1.5,1.5,0,0,0-.75-1.3,1.53,1.53,0,0,0-.75-.2Z" class="cls-88"/><path d="M934.1,323.54a.76.76,0,0,1-.38-.11.74.74,0,0,1-.37-.64v-5.23H911.49a3.75,3.75,0,0,1-3.75-3.75V256.34H687.93v5.22a.74.74,0,0,1-.75.75.71.71,0,0,1-.37-.1l-15.54-9a.75.75,0,0,1,0-1.3l15.54-9a.82.82,0,0,1,.37-.1.86.86,0,0,1,.38.1.77.77,0,0,1,.37.65v5.23h18.12V194.91H687.93v5.22a.74.74,0,0,1-.75.75.71.71,0,0,1-.37-.1l-15.54-9a.74.74,0,0,1,0-1.29l15.54-9a.82.82,0,0,1,.37-.1.86.86,0,0,1,.38.1.76.76,0,0,1,.37.65v5.23H709.8a3.76,3.76,0,0,1,3.75,3.75v57.68H907.74V191.16a3.75,3.75,0,0,1,3.75-3.75h21.86v-5.23a.76.76,0,0,1,.37-.65.86.86,0,0,1,.38-.1.79.79,0,0,1,.37.1l15.55,9a.74.74,0,0,1,.37.65.76.76,0,0,1-.37.65l-15.55,9a.69.69,0,0,1-.37.1.74.74,0,0,1-.75-.75v-5.22H915.24v53.93h18.11v-5.23a.77.77,0,0,1,.37-.65.86.86,0,0,1,.38-.1.79.79,0,0,1,.37.1l15.55,9a.76.76,0,0,1,0,1.3l-15.55,9a.69.69,0,0,1-.37.1.74.74,0,0,1-.75-.75v-5.22H915.24v53.72h18.11v-5.22a.74.74,0,0,1,.75-.75.69.69,0,0,1,.37.1l15.55,9a.76.76,0,0,1,0,1.3l-15.55,9A.7.7,0,0,1,934.1,323.54Z"/><path d="M934.1,182.18l15.54,9-15.54,9v-6H914.49v55.43H934.1v-6l15.54,9-15.54,9v-6H914.49v55.22H934.1v-6l15.54,9-15.54,9v-6H911.49a3,3,0,0,1-3-3V255.59H687.18v6l-15.54-9,15.54-9v6H706.8V194.16H687.18v6l-15.54-9,15.54-9v6H709.8a3,3,0,0,1,3,3v58.43H908.49V191.16a3,3,0,0,1,3-3H934.1v-6m-246.92-1.5a1.56,1.56,0,0,0-.75.2l-15.54,9a1.49,1.49,0,0,0,0,2.59l15.54,9a1.56,1.56,0,0,0,.75.2,1.53,1.53,0,0,0,.75-.2,1.49,1.49,0,0,0,.75-1.3v-4.47H705.3v52.43H688.68v-4.48a1.47,1.47,0,0,0-.75-1.29,1.44,1.44,0,0,0-.75-.21,1.47,1.47,0,0,0-.75.21l-15.54,9a1.5,1.5,0,0,0,0,2.6l15.54,9a1.46,1.46,0,0,0,.75.2,1.43,1.43,0,0,0,.75-.2,1.49,1.49,0,0,0,.75-1.3v-4.47H907v56.72a4.51,4.51,0,0,0,4.5,4.5H932.6v4.48a1.47,1.47,0,0,0,.75,1.29,1.44,1.44,0,0,0,1.5,0l15.54-9a1.5,1.5,0,0,0,0-2.6l-15.54-9a1.51,1.51,0,0,0-1.5,0,1.48,1.48,0,0,0-.75,1.3v4.47H916V257.09H932.6v4.47a1.49,1.49,0,0,0,.75,1.3,1.51,1.51,0,0,0,1.5,0l15.54-9a1.5,1.5,0,0,0,0-2.6l-15.54-9a1.44,1.44,0,0,0-1.5,0,1.47,1.47,0,0,0-.75,1.29v4.48H916V195.66H932.6v4.47a1.49,1.49,0,0,0,.75,1.3,1.51,1.51,0,0,0,1.5,0l15.54-9a1.5,1.5,0,0,0,0-2.6l-15.54-9a1.51,1.51,0,0,0-1.5,0,1.5,1.5,0,0,0-.75,1.3v4.48H911.49a4.5,4.5,0,0,0-4.5,4.5v56.93H714.3V191.16a4.5,4.5,0,0,0-4.5-4.5H688.68v-4.48a1.5,1.5,0,0,0-.75-1.3,1.53,1.53,0,0,0-.75-.2Z" class="cls-88"/><rect width="159.75" height="49.75" x="91.8" y="166.28" class="cls-65"/><path d="M251.43,166.41v49.5H91.93v-49.5h159.5m.25-.25h-160v50h160v-50Z"/><text class="cls-214" transform="translate(109.07 199.15)">O<tspan x="12.77" y="0" class="cls-215">v</tspan><tspan x="22.76" y="0" class="cls-216">e</tspan><tspan x="33.12" y="0" class="cls-217">n</tspan><tspan x="44.28" y="0" class="cls-218">L</tspan><tspan x="54.9" y="0" class="cls-219">i</tspan><tspan x="59.24" y="0" class="cls-215">v</tspan><tspan x="69.22" y="0" class="cls-220">e</tspan><tspan x="79.54" y="0" class="cls-221">K</tspan><tspan x="90.93" y="0" class="cls-222">i</tspan><tspan x="95.4" y="0" class="cls-223">t</tspan><tspan x="102.8" y="0" class="cls-224">,</tspan><tspan x="107.12" y="0" class="cls-225"> </tspan><tspan x="111.58" y="-4.98" class="cls-226">..</tspan><tspan x="120.61" y="-4.98" class="cls-225">.</tspan></text><rect width="60" height="50" x="30.68" y="166.16" class="cls-35"/><text class="cls-227" transform="translate(36.3 195.7)">M<tspan x="12.75" y="0" class="cls-228">o</tspan><tspan x="22.03" y="0" class="cls-229">bi</tspan><tspan x="35.64" y="0" class="cls-230">l</tspan><tspan x="39.68" y="0" class="cls-231">e</tspan></text><rect width="159.75" height="49.75" x="91.8" y="227.51" class="cls-65"/><path d="M251.43,227.63v49.5H91.93v-49.5h159.5m.25-.25h-160v50h160v-50Z"/><text class="cls-232" transform="translate(101.33 260.37)">O<tspan x="12.55" y="0" class="cls-233">B</tspan><tspan x="25.21" y="0" class="cls-234">S</tspan><tspan x="36.54" y="0" class="cls-224">,</tspan><tspan x="40.85" y="0" class="cls-225"> </tspan><tspan x="45.32" y="0" class="cls-143">W</tspan><tspan x="59.8" y="0" class="cls-235">e</tspan><tspan x="70.15" y="0" class="cls-236">b</tspan><tspan x="81.24" y="0" class="cls-237">c</tspan><tspan x="91.7" y="0" class="cls-238">a</tspan><tspan x="101.88" y="0" class="cls-239">m</tspan><tspan x="118.29" y="0" class="cls-224">,</tspan><tspan x="122.61" y="0" class="cls-225"> </tspan><tspan x="127.07" y="-4.98" class="cls-226">..</tspan><tspan x="136.1" y="-4.98" class="cls-225">.</tspan></text><rect width="60" height="50" x="30.68" y="227.38" class="cls-35"/><text class="cls-240" transform="translate(50.01 256.93)">P<tspan x="10.54" y="0" class="cls-231">C</tspan></text><text class="cls-241" transform="translate(763.15 219.37) scale(0.98 1)">O<tspan x="9.61" y="0" class="cls-242">V</tspan><tspan x="19.59" y="0" class="cls-243">T</tspan><tspan x="28.19" y="0" class="cls-244">* </tspan><tspan x="38.15" y="0" class="cls-245">o</tspan><tspan x="45.98" y="0" class="cls-246">v</tspan><tspan x="53.47" y="0" class="cls-247">e</tspan><tspan x="61.28" y="0" class="cls-248">r </tspan><tspan x="69.77" y="0" class="cls-249">S</tspan><tspan x="78.69" y="0" class="cls-250">R</tspan><tspan x="88.26" y="0" class="cls-251">T</tspan></text><rect width="160" height="50" x="730.64" y="227.59" class="cls-50"/><text class="cls-252" transform="translate(772.87 248.32)">M<tspan x="13.53" y="0" class="cls-253">a</tspan><tspan x="22.65" y="0" class="cls-254">t</tspan><tspan x="28.57" y="0" class="cls-255">c</tspan><tspan x="37.72" y="0" class="cls-49">h </tspan><tspan x="52.29" y="0" class="cls-256">b</tspan><tspan x="62.04" y="0" class="cls-49">y </tspan><tspan class="cls-257"><tspan x="-25.46" y="19.98">D</tspan><tspan x="-13.48" y="19.98" class="cls-258">o</tspan><tspan x="-3.58" y="19.98" class="cls-259">m</tspan><tspan x="11.99" y="19.98" class="cls-260">ai</tspan><tspan x="25.32" y="19.98" class="cls-49">n </tspan><tspan x="39.92" y="19.98" class="cls-261">P</tspan><tspan x="51.06" y="19.98" class="cls-262">a</tspan><tspan x="60.55" y="19.98" class="cls-263">t</tspan><tspan x="67.67" y="19.98" class="cls-264">t</tspan><tspan x="74.21" y="19.98" class="cls-265">e</tspan><tspan x="83.85" y="19.98" class="cls-266">r</tspan><tspan x="90.45" y="19.98" class="cls-49">n</tspan></tspan></text><text class="cls-267" transform="translate(1212.38 295.38) scale(0.98 1)">O<tspan x="10.18" y="0" class="cls-268">u</tspan><tspan x="19.11" y="0" class="cls-269">t</tspan><tspan x="25.07" y="0" class="cls-188">p</tspan><tspan x="33.95" y="0" class="cls-149">u</tspan><tspan x="42.89" y="0" class="cls-270">t</tspan><tspan class="cls-157"><tspan x="-70.03" y="20">- </tspan><tspan x="-60.87" y="20" class="cls-271">L</tspan><tspan x="-54.05" y="20" class="cls-272">o</tspan><tspan x="-47.24" y="20">w </tspan><tspan x="-34.19" y="20" class="cls-273">L</tspan><tspan x="-27.11" y="20" class="cls-162">a</tspan><tspan x="-20.5" y="20" class="cls-274">t</tspan><tspan x="-16.23" y="20" class="cls-275">e</tspan><tspan x="-9.45" y="20" class="cls-160">nc</tspan><tspan x="4.56" y="20" class="cls-276">y</tspan><tspan x="11.2" y="20">: </tspan><tspan x="17.16" y="20" class="cls-193">W</tspan><tspan x="26.98" y="20" class="cls-194">e</tspan><tspan x="33.96" y="20" class="cls-195">b</tspan><tspan x="41.37" y="20" class="cls-196">R</tspan><tspan x="49.68" y="20" class="cls-197">T</tspan><tspan x="56.84" y="20" class="cls-277">C</tspan><tspan x="64.94" y="20" class="cls-166">, </tspan><tspan x="70.85" y="20" class="cls-278">LL</tspan><tspan x="85.12" y="20" class="cls-279">D</tspan><tspan x="93.68" y="20" class="cls-280">A</tspan><tspan x="102.24" y="20" class="cls-202">S</tspan><tspan x="109.98" y="20" class="cls-163">H</tspan><tspan x="-55.21" y="36">- </tspan><tspan x="-46.04" y="36" class="cls-281">L</tspan><tspan x="-39.25" y="36" class="cls-282">e</tspan><tspan x="-32.37" y="36" class="cls-283">g</tspan><tspan x="-25.14" y="36" class="cls-284">a</tspan><tspan x="-18.47" y="36" class="cls-285">c</tspan><tspan x="-11.81" y="36" class="cls-286">y</tspan><tspan x="-5.18" y="36">: </tspan><tspan x=".79" y="36" class="cls-287">M</tspan><tspan x="10.73" y="36" class="cls-288">P</tspan><tspan x="18.8" y="36" class="cls-289">E</tspan><tspan x="26.27" y="36" class="cls-206">G</tspan><tspan x="34.82" y="36" class="cls-290">-</tspan><tspan x="40.64" y="36" class="cls-279">D</tspan><tspan x="49.2" y="36" class="cls-280">A</tspan><tspan x="57.76" y="36" class="cls-202">S</tspan><tspan x="65.51" y="36" class="cls-291">H</tspan><tspan x="74.3" y="36" class="cls-292">, </tspan><tspan x="80.22" y="36" class="cls-287">H</tspan><tspan x="89.12" y="36" class="cls-293">L</tspan><tspan x="96.35" y="36" class="cls-163">S</tspan></tspan></text><rect width="160" height="50" x="1156.36" y="227.59" class="cls-50"/><text class="cls-294" transform="translate(1188.9 257.65)">V<tspan x="11.5" y="0" class="cls-260">i</tspan><tspan x="15.38" y="0" class="cls-295">r</tspan><tspan x="22.49" y="0" class="cls-296">t</tspan><tspan x="29.15" y="0" class="cls-297">u</tspan><tspan x="39.53" y="0" class="cls-298">a</tspan><tspan x="48.99" y="0" class="cls-56">l </tspan><tspan x="57.05" y="0" class="cls-299">H</tspan><tspan x="69.44" y="0" class="cls-262">o</tspan><tspan x="79.33" y="0" class="cls-300">s</tspan><tspan x="88.25" y="0" class="cls-49">t</tspan></text></g></g></svg>